<?xml version="1.0" encoding="utf-8"?>
<!-- Generator: Adobe Illustrator 25.4.0, SVG Export Plug-In . SVG Version: 6.00 Build 0)  -->
<svg version="1.1" id="Capa_1" xmlns="http://www.w3.org/2000/svg" xmlns:xlink="http://www.w3.org/1999/xlink" x="0px" y="0px"
	 viewBox="0 0 16 16" style="enable-background:new 0 0 16 16;" xml:space="preserve">
<style type="text/css">
	.st0{fill:#009FE3;}
	.st1{fill:#FFFFFF;}
</style>
<g>
	<path class="st0" d="M1.8,11.6c0-0.2,0-0.3,0-0.5c0-0.3-0.1-0.5-0.3-0.8c-0.3-0.3-0.5-0.5-0.8-0.8c-0.9-0.9-0.9-2.2,0-3.1
		c0.2-0.3,0.5-0.5,0.8-0.7c0.2-0.2,0.3-0.5,0.3-0.8c0-0.4,0-0.8,0-1.2c0.1-1,1.1-1.8,2.1-1.8c0.3,0,0.7,0,1,0c0.3,0,0.6-0.1,0.8-0.3
		c0.3-0.3,0.5-0.5,0.8-0.8c0.9-0.9,2.2-0.9,3.1,0c0.3,0.3,0.5,0.5,0.8,0.8c0.2,0.2,0.5,0.3,0.8,0.3c0.4,0,0.9,0,1.3,0
		c1,0.1,1.8,1.1,1.8,2.1c0,0.3,0,0.7,0,1c0,0.3,0.1,0.6,0.3,0.8c0.3,0.3,0.5,0.5,0.8,0.8c0.9,0.9,0.9,2.2,0,3.1
		c-0.3,0.3-0.5,0.5-0.8,0.8c-0.2,0.2-0.3,0.5-0.3,0.8c0,0.4,0,0.8,0,1.3c-0.1,1-1.1,1.8-2.1,1.8c-0.3,0-0.7,0-1,0
		c-0.3,0-0.6,0.1-0.8,0.3c-0.3,0.3-0.5,0.5-0.8,0.8c-0.9,0.9-2.2,0.9-3.1,0c-0.3-0.2-0.5-0.5-0.8-0.8c-0.2-0.2-0.5-0.3-0.8-0.3
		c-0.4,0-0.8,0-1.3,0c-1-0.1-1.8-1-1.8-2.1C1.8,11.9,1.8,11.8,1.8,11.6C1.8,11.6,1.8,11.6,1.8,11.6z"/>
	<path class="st1" d="M7.3,8.7c0.3-0.3,0.5-0.5,0.8-0.8c0.6-0.6,1.1-1.1,1.7-1.7c0.3-0.3,0.6-0.3,0.8,0c0.2,0.2,0.2,0.6,0,0.8
		c-1,1-1.9,1.9-2.9,2.9c-0.3,0.3-0.6,0.3-0.9,0C6.4,9.4,5.9,8.9,5.4,8.4c-0.2-0.2-0.3-0.6,0-0.8c0.2-0.2,0.6-0.2,0.8,0
		C6.6,8,6.9,8.3,7.3,8.7z"/>
</g>
</svg>
