<svg xmlns="http://www.w3.org/2000/svg" viewBox="0 0 207.78 207.78"><defs><style>.cls-1{fill:#333;}</style></defs><g id="Capa_2" data-name="Capa 2"><g id="Capa_1-2" data-name="Capa 1"><path class="cls-1" d="M126,59.7,110.33,75.38,98.24,87.47a15.43,15.43,0,0,0-4,6.79,15.61,15.61,0,0,0,19.27,19.27,15.55,15.55,0,0,1-4,6.78l-12.1,12.1a35.87,35.87,0,0,1-22-22L59.67,125.53A15.61,15.61,0,1,0,81.32,148l16-15.37,12.33-11.86A15.61,15.61,0,0,0,94.83,94.45a15.48,15.48,0,0,1,4.11-6.71l12.32-11.86a35.85,35.85,0,0,1,21.28,21.44l15.54-15.54A15.61,15.61,0,0,0,126,59.7Z"/><path class="cls-1" d="M103.89,0A103.89,103.89,0,1,0,207.78,103.89,103.89,103.89,0,0,0,103.89,0Zm58.54,96.13L134.66,123.9a36.75,36.75,0,0,1-5.19,4.28c-.28.46-.56.92-.86,1.37a35.73,35.73,0,0,1-4.92,5.86l-28.3,27.24A35.9,35.9,0,1,1,45.6,110.91L73.9,83.67a37,37,0,0,1,4.71-3.82c.16-.25.3-.52.47-.77a36,36,0,0,1,4.81-6l27.77-27.77a35.9,35.9,0,1,1,50.77,50.78Z"/></g></g></svg>