<svg width="48" height="48" viewBox="0 0 48 48" fill="none" xmlns="http://www.w3.org/2000/svg">
<path fill-rule="evenodd" clip-rule="evenodd" d="M24.7 11.705C15.8361 11.705 11.1987 19.2218 8.60791 26.5672C8.2947 27.4552 7.3209 27.9212 6.43287 27.608C5.54484 27.2948 5.07886 26.321 5.39207 25.4329C8.02133 17.9783 13.4039 8.29504 24.7 8.29504C30.6045 8.29504 34.8395 12.2044 37.579 16.901C40.326 21.6104 41.7917 27.4429 42.1111 32.1547C42.1339 32.4919 42.0561 32.8283 41.8874 33.1211C40.303 35.8714 37.6671 37.6637 34.6626 38.7615C31.666 39.8564 28.1948 40.3037 24.7155 40.305C18.7134 40.4107 12.9643 37.8898 8.97568 33.4028C8.55667 32.9314 8.43209 32.2673 8.65178 31.6761L10.25 32.27C8.65178 31.6761 8.65167 31.6764 8.65178 31.6761L8.65552 31.6661L8.66388 31.6439L8.69414 31.5643C8.72024 31.4962 8.75807 31.3985 8.80681 31.2755C8.90423 31.0296 9.0456 30.6815 9.22429 30.2648C9.5801 29.4353 10.0911 28.3173 10.7043 27.1886C11.3095 26.0747 12.0532 24.8774 12.8885 23.9341C13.649 23.0753 14.833 22.0254 16.3484 22.0151L16.36 22.015C17.4316 22.015 18.3119 22.5057 18.9456 22.9774C19.5843 23.4529 20.1644 24.0571 20.6292 24.549C20.6826 24.6054 20.7344 24.6604 20.7848 24.7139C21.2177 25.1729 21.5488 25.5239 21.8633 25.7867C21.8987 25.8163 21.9311 25.8423 21.9607 25.8653C22.063 25.7608 22.1851 25.6237 22.3256 25.4496C22.8253 24.8301 23.3866 23.9574 23.9297 23.0231C24.4658 22.1011 24.9536 21.1724 25.3093 20.4699C25.4865 20.1199 25.6295 19.8287 25.7277 19.6262C25.7768 19.525 25.8146 19.4461 25.8398 19.3932L25.868 19.3338L25.8761 19.3167C26.2758 18.4642 27.2911 18.0966 28.1437 18.4962C28.9963 18.8959 29.3635 19.9111 28.9638 20.7637L27.42 20.04C28.9638 20.7637 28.9639 20.7635 28.9638 20.7637L28.9634 20.7646L28.9626 20.7662L28.9601 20.7715L28.9513 20.7903L28.9185 20.8594C28.8901 20.919 28.8489 21.0051 28.7961 21.1139C28.6907 21.3314 28.5389 21.6402 28.3516 22.0102C27.9782 22.7477 27.458 23.739 26.8777 24.737C26.3047 25.7227 25.6416 26.77 24.9797 27.5905C24.6515 27.9974 24.2794 28.4044 23.8771 28.7244C23.5215 29.0073 22.8942 29.425 22.09 29.425C21.0267 29.425 20.1888 28.8313 19.6767 28.4034C19.1941 28.0001 18.7119 27.4874 18.3069 27.0569C18.2535 27 18.2014 26.9446 18.1508 26.8911C17.6706 26.383 17.2782 25.9872 16.9094 25.7127C16.5878 25.4733 16.4228 25.4329 16.3745 25.4263C16.3731 25.4269 16.3708 25.4278 16.3674 25.429C16.3135 25.4486 16.0019 25.5618 15.4415 26.1948C14.8555 26.8565 14.2554 27.7954 13.7006 28.8165C13.1539 29.8228 12.6886 30.8386 12.3582 31.609C12.3157 31.7081 12.2755 31.8029 12.2378 31.8927C15.5216 35.165 20.0041 36.981 24.6687 36.8953L24.7 36.895C27.9254 36.895 30.9784 36.4771 33.4924 35.5586C35.8059 34.7133 37.5705 33.4812 38.6672 31.8455C38.3042 27.6583 36.9678 22.6211 34.6335 18.6191C32.1904 14.4307 28.8755 11.705 24.7 11.705ZM21.6805 26.1076C21.6806 26.1069 21.6879 26.1019 21.7022 26.0945C21.6875 26.1045 21.6804 26.1082 21.6805 26.1076Z" fill="#1D2D35"/>
</svg>
