<svg width="48" height="48" viewBox="0 0 48 48" fill="none" xmlns="http://www.w3.org/2000/svg">
<path d="M24 48C37.2548 48 48 37.2548 48 24C48 10.7452 37.2548 0 24 0C10.7452 0 0 10.7452 0 24C0 37.2548 10.7452 48 24 48Z" fill="#F7931A"/>
<path fill-rule="evenodd" clip-rule="evenodd" d="M33.9837 20.2663C34.4541 17.122 32.0601 15.4316 28.7865 14.304L29.8484 10.0445L27.2556 9.39839L26.2218 13.5456C25.5402 13.3757 24.8401 13.2155 24.1445 13.0567L25.1857 8.88221L22.5945 8.23605L21.5318 12.494C20.9676 12.3655 20.4138 12.2385 19.8762 12.1049L19.8791 12.0916L16.3035 11.1988L15.6138 13.968C15.6138 13.968 17.5375 14.4089 17.4969 14.4362C18.5469 14.6983 18.7367 15.3932 18.705 15.9441L17.4954 20.7965C17.5677 20.815 17.6615 20.8416 17.7649 20.8829L17.6771 20.861L17.677 20.861C17.6169 20.8459 17.5546 20.8303 17.4909 20.815L15.7954 27.6125C15.6669 27.9316 15.3413 28.4101 14.6073 28.2284C14.6331 28.2661 12.7227 27.758 12.7227 27.758L11.4356 30.7259L14.8096 31.567C15.1864 31.6614 15.5587 31.7585 15.9271 31.8546L15.9276 31.8547C16.1727 31.9186 16.4161 31.9821 16.658 32.0441L15.585 36.3522L18.1748 36.9984L19.2374 32.736C19.9449 32.928 20.6316 33.1052 21.3036 33.2721L20.2447 37.5146L22.8374 38.1607L23.9104 33.8607C28.3316 34.6973 31.6561 34.3599 33.0555 30.3611C34.1831 27.1414 32.9994 25.2842 30.6732 24.0731C32.3673 23.6825 33.6433 22.5681 33.9837 20.2663ZM28.0598 28.5733C27.3247 31.5272 22.701 30.306 20.5855 29.7472L20.5852 29.7471C20.395 29.6969 20.225 29.652 20.08 29.616L21.5037 23.9084C21.6804 23.9525 21.8962 24.0009 22.1407 24.0558L22.1407 24.0558C24.3289 24.5468 28.8131 25.553 28.0598 28.5733ZM22.5804 21.4071C24.3442 21.8778 28.1916 22.9046 28.8618 20.2198C29.5461 17.4737 25.8068 16.6459 23.9805 16.2416C23.7751 16.1961 23.5939 16.156 23.4459 16.1191L22.1551 21.2957C22.277 21.3261 22.4201 21.3643 22.5804 21.4071Z" fill="white"/>
</svg>
