<svg width="48" height="48" viewBox="0 0 48 48" fill="none" xmlns="http://www.w3.org/2000/svg">
<path d="M24.1532 47.592C37.1914 47.592 47.7609 37.0225 47.7609 23.9843C47.7609 10.9462 37.1914 0.376648 24.1532 0.376648C11.1151 0.376648 0.545532 10.9462 0.545532 23.9843C0.545532 37.0225 11.1151 47.592 24.1532 47.592Z" fill="#DE5833"/>
<mask id="mask0_147648_529" style="mask-type:alpha" maskUnits="userSpaceOnUse" x="0" y="0" width="48" height="48">
<path fill-rule="evenodd" clip-rule="evenodd" d="M47.8542 23.9188C47.8542 36.9877 37.2226 47.6206 24.1523 47.6206C11.0848 47.6206 0.453232 36.9872 0.453232 23.9188C0.453232 10.8512 11.0852 0.219238 24.1523 0.219238C37.2222 0.219238 47.8542 10.8512 47.8542 23.9188Z" fill="white"/>
</mask>
<g mask="url(#mask0_147648_529)">
<path d="M33.8275 59.1499C32.9963 55.326 28.1682 46.6703 26.3368 43.0103C24.5068 39.3494 22.6731 34.1903 23.508 30.8617C23.6594 30.2562 21.9222 25.6427 22.4215 25.3163C26.3059 22.783 27.3286 25.5928 28.884 24.457C29.6843 23.8694 30.7717 24.9402 31.0482 23.9677C32.0442 20.4753 29.6608 14.3862 27 11.725C26.13 10.8577 24.798 10.3127 23.2939 10.0233C22.7151 9.23265 21.7823 8.4725 20.4609 7.77142C18.9895 6.98819 15.7897 5.95389 14.13 5.67835C12.9799 5.48912 12.72 5.81081 12.2289 5.89112C12.6868 5.93173 14.8592 7.00527 15.282 7.06758C14.8592 7.35327 13.6172 7.05465 12.8248 7.41004C12.4255 7.59096 12.1269 8.27635 12.1297 8.60081C14.3959 8.37189 17.9331 8.59342 20.022 9.52389C18.3595 9.71312 15.8312 9.92404 14.7439 10.4954C11.5832 12.1607 10.1871 16.05 11.0192 20.7107C11.8519 25.3607 15.5137 42.3337 16.6786 48.001C17.844 53.6613 14.1826 57.319 11.8532 58.3182L14.3492 58.4857L13.518 60.3167C16.5106 60.6485 19.8388 59.6525 19.8388 59.6525C19.1751 61.4825 14.6806 62.1503 14.6806 62.1503C14.6806 62.1503 16.8457 62.814 20.3382 61.4825C23.8357 60.1519 25.998 59.3188 25.998 59.3188L27.6614 63.6448L30.8248 60.4847L32.1563 63.8128C32.1628 63.8123 34.6597 62.9783 33.8275 59.1499Z" fill="#D5D7D8"/>
<path d="M34.8328 58.374C34.0043 54.5483 29.1762 45.8926 27.3429 42.2299C25.5106 38.5671 23.6806 33.4089 24.5137 30.0817C24.6683 29.4776 24.6711 27.0042 25.1732 26.676C29.0552 24.1403 28.7788 26.5911 30.3365 25.4552C31.1395 24.8686 31.7825 24.1602 32.0617 23.1882C33.0605 19.6934 30.6743 13.6066 28.0126 10.944C27.1454 10.0768 25.812 9.53079 24.3097 9.24279C23.7319 8.44986 22.8 7.69156 21.4805 6.98956C18.9923 5.66863 15.9079 5.14063 13.05 5.65894C13.5069 5.70048 14.5528 6.64571 14.9737 6.70802C14.3363 7.14002 12.6415 7.08417 12.6526 8.04463C14.9215 7.81756 17.4079 8.17617 19.4991 9.10479C17.8366 9.29402 16.2891 9.70479 15.2017 10.2785C12.0383 11.9414 11.2066 15.2686 12.0383 19.9311C12.8723 24.5912 16.5346 41.5648 17.6949 47.22C18.8612 52.8785 15.2017 56.5376 12.8723 57.5372L15.3683 57.7029L14.5371 59.5366C17.5297 59.8694 20.8579 58.8725 20.8579 58.8725C20.1942 60.7066 15.6997 61.3676 15.6997 61.3676C15.6997 61.3676 17.8625 62.0317 21.3572 60.7006C24.8562 59.37 27.0199 58.5369 27.0199 58.5369L28.6832 62.8629L31.8462 59.7L33.1805 63.03C33.1731 63.0332 35.6672 62.2006 34.8328 58.374Z" fill="white"/>
<path d="M15.702 20.1651C15.702 19.1991 16.4834 18.4172 17.4508 18.4172C18.4154 18.4172 19.1977 19.1991 19.1977 20.1651C19.1977 21.1315 18.4154 21.9125 17.4508 21.9125C16.4834 21.9129 15.702 21.1315 15.702 20.1651Z" fill="#2D4F8E"/>
<path d="M17.7725 19.5827C17.7725 19.3311 17.976 19.129 18.2248 19.129C18.4754 19.129 18.6789 19.3311 18.6789 19.5827C18.6789 19.8333 18.4754 20.0368 18.2248 20.0368C17.9765 20.0373 17.7725 19.8333 17.7725 19.5827Z" fill="white"/>
<path d="M27.6309 19.1285C27.6309 18.3009 28.3052 17.6285 29.1318 17.6285C29.9631 17.6285 30.6346 18.3009 30.6346 19.1285C30.6346 19.9597 29.9631 20.6322 29.1318 20.6322C28.3052 20.6322 27.6309 19.9597 27.6309 19.1285Z" fill="#2D4F8E"/>
<path d="M29.4115 18.6291C29.4115 18.4154 29.5865 18.24 29.7983 18.24C30.0194 18.24 30.1888 18.4154 30.1888 18.6291C30.1888 18.8455 30.0194 19.0177 29.7983 19.0177C29.5865 19.0177 29.4115 18.8455 29.4115 18.6291Z" fill="white"/>
<path d="M17.9474 15.1006C17.9474 15.1006 16.6302 14.5048 15.3494 15.3097C14.0709 16.1137 14.118 16.9357 14.118 16.9357C14.118 16.9357 13.4382 15.4205 15.2502 14.6778C17.064 13.9352 17.9474 15.1006 17.9474 15.1006Z" fill="url(#paint0_linear_147648_529)"/>
<path d="M30.036 14.9806C30.036 14.9806 29.0894 14.4397 28.3546 14.4489C26.8449 14.4688 26.4337 15.1357 26.4337 15.1357C26.4337 15.1357 26.6871 13.5457 28.6177 13.8646C29.6645 14.0386 30.036 14.9806 30.036 14.9806Z" fill="url(#paint1_linear_147648_529)"/>
</g>
<path d="M22.8 26.9054C22.9749 25.848 25.7072 23.8477 27.642 23.7267C29.5809 23.6044 30.1851 23.6321 31.8005 23.2454C33.4205 22.8586 37.5859 21.8201 38.7388 21.2875C39.8945 20.754 44.7868 21.5515 41.3377 23.4743C39.846 24.3092 35.8255 25.8424 32.9506 26.6991C30.0803 27.558 28.3399 25.8794 27.3845 27.2903C26.6248 28.4127 27.2303 29.9497 30.6609 30.2686C35.2934 30.6978 39.7348 28.182 40.2235 29.5186C40.7146 30.8547 36.2428 32.5223 33.5197 32.5754C30.7999 32.6266 25.3177 30.7772 24.4943 30.2044C23.67 29.6331 22.572 28.2983 22.8 26.9054Z" fill="#FDD20A"/>
<path d="M24.8968 40.8886C24.8968 40.8886 18.3882 37.4174 18.282 38.8255C18.1722 40.236 18.282 45.9835 19.0403 46.4183C19.8 46.8512 25.2231 43.5992 25.2231 43.5992L24.8968 40.8886Z" fill="#65BC46"/>
<path d="M27.3905 40.6699C27.3905 40.6699 31.8374 37.3075 32.8154 37.5245C33.7897 37.7455 34.0071 44.6829 33.1389 45.0148C32.2708 45.3332 27.1814 43.2549 27.1814 43.2549L27.3905 40.6699Z" fill="#65BC46"/>
<path d="M23.3211 41.2565C23.3211 43.5328 22.9939 44.5098 23.9719 44.7268C24.9452 44.9451 26.7891 44.7268 27.4417 44.2938C28.0925 43.8609 27.5488 40.9343 27.3346 40.3869C27.1145 39.8451 23.3211 40.2798 23.3211 41.2565Z" fill="#43A244"/>
<path d="M23.7351 40.7502C23.7351 43.0269 23.4088 44.004 24.3854 44.2205C25.3574 44.4416 27.2026 44.2205 27.8557 43.7876C28.5065 43.3532 27.9623 40.428 27.7468 39.8802C27.5285 39.3388 23.7351 39.7754 23.7351 40.7502Z" fill="#65BC46"/>
<defs>
<linearGradient id="paint0_linear_147648_529" x1="13.9931" y1="16.9356" x2="17.9477" y2="16.9356" gradientUnits="userSpaceOnUse">
<stop offset="0.0056" stop-color="#6176B9"/>
<stop offset="0.691" stop-color="#394A9F"/>
</linearGradient>
<linearGradient id="paint1_linear_147648_529" x1="26.4339" y1="15.1356" x2="30.0361" y2="15.1356" gradientUnits="userSpaceOnUse">
<stop offset="0.0056" stop-color="#6176B9"/>
<stop offset="0.691" stop-color="#394A9F"/>
</linearGradient>
</defs>
</svg>
