<svg width="48" height="48" viewBox="0 0 48 48" fill="none" xmlns="http://www.w3.org/2000/svg">
<path d="M43.3299 35.7176C42.6863 36.0521 42.0225 36.3464 41.3425 36.5988C39.1892 37.4003 36.909 37.8068 34.6114 37.7988C25.743 37.7988 18.0182 31.7052 18.0182 23.868C18.0297 22.8185 18.3207 21.7911 18.8611 20.8915C19.4016 19.9918 20.172 19.2524 21.0931 18.7494C13.0683 19.0869 11.0059 27.4491 11.0059 32.3427C11.0059 46.2173 23.7743 47.6047 26.5304 47.6047C28.0116 47.6047 30.2428 47.1735 31.5928 46.7423L31.8365 46.6673C37.0027 44.8819 41.4069 41.3903 44.3236 36.7676C44.4084 36.6271 44.4448 36.4627 44.4272 36.2996C44.4096 36.1365 44.339 35.9837 44.2262 35.8645C44.1135 35.7454 43.9647 35.6665 43.8028 35.64C43.6409 35.6134 43.4748 35.6407 43.3299 35.7176V35.7176Z" fill="url(#paint0_linear_147648_1640)"/>
<path opacity="0.35" d="M43.3299 35.7176C42.6863 36.0521 42.0225 36.3464 41.3425 36.5988C39.1892 37.4003 36.909 37.8068 34.6114 37.7988C25.743 37.7988 18.0182 31.7052 18.0182 23.868C18.0297 22.8185 18.3207 21.7911 18.8611 20.8915C19.4016 19.9918 20.172 19.2524 21.0931 18.7494C13.0683 19.0869 11.0059 27.4491 11.0059 32.3427C11.0059 46.2173 23.7743 47.6047 26.5304 47.6047C28.0116 47.6047 30.2428 47.1735 31.5928 46.7423L31.8365 46.6673C37.0027 44.8819 41.4069 41.3903 44.3236 36.7676C44.4084 36.6271 44.4448 36.4627 44.4272 36.2996C44.4096 36.1365 44.339 35.9837 44.2262 35.8645C44.1135 35.7454 43.9647 35.6665 43.8028 35.64C43.6409 35.6134 43.4748 35.6407 43.3299 35.7176V35.7176Z" fill="url(#paint1_radial_147648_1640)"/>
<path d="M19.8181 45.2424C18.1492 44.2058 16.7026 42.8484 15.562 41.2487C14.2596 39.466 13.363 37.4199 12.9353 35.2539C12.5076 33.0879 12.5591 30.8546 13.0862 28.7106C13.6132 26.5666 14.6031 24.5639 15.9863 22.8431C17.3695 21.1223 19.1125 19.7251 21.0931 18.7494C21.6931 18.4682 22.6868 17.9807 24.018 17.9995C24.9547 18.0067 25.8771 18.2305 26.713 18.6533C27.5489 19.0762 28.2757 19.6866 28.8366 20.4369C29.591 21.4514 30.0045 22.6788 30.0178 23.943C30.0178 23.9055 34.6114 9.01849 15.0183 9.01849C6.78728 9.01849 0.0187446 16.8183 0.0187446 23.6805C-0.0139947 27.3055 0.760992 30.8922 2.28742 34.1802C4.78723 39.5032 9.15447 43.7231 14.5601 46.0388C19.9657 48.3545 26.0335 48.6049 31.6115 46.7423C29.6573 47.3595 27.5923 47.5451 25.5594 47.2861C23.5264 47.0271 21.574 46.3298 19.8369 45.2424H19.8181Z" fill="url(#paint2_linear_147648_1640)"/>
<path opacity="0.41" d="M19.8181 45.2424C18.1492 44.2058 16.7026 42.8484 15.562 41.2487C14.2596 39.466 13.363 37.4199 12.9353 35.2539C12.5076 33.0879 12.5591 30.8546 13.0862 28.7106C13.6132 26.5666 14.6031 24.5639 15.9863 22.8431C17.3695 21.1223 19.1125 19.7251 21.0931 18.7494C21.6931 18.4682 22.6868 17.9807 24.018 17.9995C24.9547 18.0067 25.8771 18.2305 26.713 18.6533C27.5489 19.0762 28.2757 19.6866 28.8366 20.4369C29.591 21.4514 30.0045 22.6788 30.0178 23.943C30.0178 23.9055 34.6114 9.01849 15.0183 9.01849C6.78728 9.01849 0.0187446 16.8183 0.0187446 23.6805C-0.0139947 27.3055 0.760992 30.8922 2.28742 34.1802C4.78723 39.5032 9.15447 43.7231 14.5601 46.0388C19.9657 48.3545 26.0335 48.6049 31.6115 46.7423C29.6573 47.3595 27.5923 47.5451 25.5594 47.2861C23.5264 47.0271 21.574 46.3298 19.8369 45.2424H19.8181Z" fill="url(#paint3_radial_147648_1640)"/>
<path d="M28.5741 27.8991C28.4054 28.0866 27.9366 28.3679 27.9366 28.9491C27.9366 29.4366 28.2554 29.9241 28.8366 30.3178C31.5178 32.1928 36.5989 31.9303 36.6176 31.9303C38.6164 31.9289 40.5783 31.3915 42.2987 30.3741C44.0308 29.361 45.468 27.9127 46.4678 26.1729C47.4676 24.4331 47.9953 22.4622 47.9985 20.4556C48.0548 16.2557 46.4986 13.4621 45.8798 12.2246C41.8862 4.46236 33.3177 1.17492e-07 23.9993 1.17492e-07C17.6923 -0.000623525 11.6386 2.48148 7.14743 6.90948C2.65628 11.3375 0.0886915 17.3554 0 23.6618C0.0937471 16.8182 6.89979 11.2871 14.9995 11.2871C15.6558 11.2871 19.4056 11.3434 22.8743 13.1621C25.3112 14.373 27.3292 16.2866 28.6679 18.6557C29.8116 20.6431 30.0178 23.1743 30.0178 24.1868C30.0178 25.1992 29.5116 26.6804 28.5554 27.9179L28.5741 27.8991Z" fill="url(#paint4_radial_147648_1640)"/>
<path d="M28.5741 27.8991C28.4054 28.0866 27.9366 28.3679 27.9366 28.9491C27.9366 29.4366 28.2554 29.9241 28.8366 30.3178C31.5178 32.1928 36.5989 31.9303 36.6176 31.9303C38.6164 31.9289 40.5783 31.3915 42.2987 30.3741C44.0308 29.361 45.468 27.9127 46.4678 26.1729C47.4676 24.4331 47.9953 22.4622 47.9985 20.4556C48.0548 16.2557 46.4986 13.4621 45.8798 12.2246C41.8862 4.46236 33.3177 1.17492e-07 23.9993 1.17492e-07C17.6923 -0.000623525 11.6386 2.48148 7.14743 6.90948C2.65628 11.3375 0.0886915 17.3554 0 23.6618C0.0937471 16.8182 6.89979 11.2871 14.9995 11.2871C15.6558 11.2871 19.4056 11.3434 22.8743 13.1621C25.3112 14.373 27.3292 16.2866 28.6679 18.6557C29.8116 20.6431 30.0178 23.1743 30.0178 24.1868C30.0178 25.1992 29.5116 26.6804 28.5554 27.9179L28.5741 27.8991Z" fill="url(#paint5_radial_147648_1640)"/>
<defs>
<linearGradient id="paint0_linear_147648_1640" x1="11.0059" y1="33.1864" x2="44.4549" y2="33.1864" gradientUnits="userSpaceOnUse">
<stop stop-color="#0C59A4"/>
<stop offset="1" stop-color="#114A8B"/>
</linearGradient>
<radialGradient id="paint1_radial_147648_1640" cx="0" cy="0" r="1" gradientUnits="userSpaceOnUse" gradientTransform="translate(29.4741 33.4386) scale(17.8869 16.9926)">
<stop offset="0.7" stop-opacity="0"/>
<stop offset="0.9" stop-opacity="0.5"/>
<stop offset="1"/>
</radialGradient>
<linearGradient id="paint2_linear_147648_1640" x1="28.6304" y1="18.6744" x2="7.76226" y2="41.4175" gradientUnits="userSpaceOnUse">
<stop stop-color="#1B9DE2"/>
<stop offset="0.2" stop-color="#1595DF"/>
<stop offset="0.7" stop-color="#0680D7"/>
<stop offset="1" stop-color="#0078D4"/>
</linearGradient>
<radialGradient id="paint3_radial_147648_1640" cx="0" cy="0" r="1" gradientUnits="userSpaceOnUse" gradientTransform="translate(13.2286 37.2996) rotate(-81.3844) scale(26.884 21.7196)">
<stop offset="0.8" stop-opacity="0"/>
<stop offset="0.9" stop-opacity="0.5"/>
<stop offset="1"/>
</radialGradient>
<radialGradient id="paint4_radial_147648_1640" cx="0" cy="0" r="1" gradientUnits="userSpaceOnUse" gradientTransform="translate(4.85422 8.87147) rotate(92.2906) scale(37.9792 80.8877)">
<stop stop-color="#35C1F1"/>
<stop offset="0.1" stop-color="#34C1ED"/>
<stop offset="0.2" stop-color="#2FC2DF"/>
<stop offset="0.3" stop-color="#2BC3D2"/>
<stop offset="0.7" stop-color="#36C752"/>
</radialGradient>
<radialGradient id="paint5_radial_147648_1640" cx="0" cy="0" r="1" gradientUnits="userSpaceOnUse" gradientTransform="translate(45.0099 14.4933) rotate(73.7398) scale(18.2432 14.8354)">
<stop stop-color="#66EB6E"/>
<stop offset="1" stop-color="#66EB6E" stop-opacity="0"/>
</radialGradient>
</defs>
</svg>
