<svg width="48" height="48" viewBox="0 0 48 48" fill="none" xmlns="http://www.w3.org/2000/svg">
<path d="M3.62887 39.756L5.74569 43.4123C6.18556 44.1821 6.81787 44.7869 7.56014 45.2268L15.1203 32.1409H0C0 32.9931 0.219921 33.8453 0.659784 34.6151L3.62887 39.756Z" fill="#0066DA"/>
<path d="M24 16.7457L16.4399 3.65979C15.6976 4.09965 15.0653 4.70446 14.6254 5.47422L0.659784 29.6667C0.228011 30.4198 0.00057488 31.2727 0 32.1409H15.1203L24 16.7457Z" fill="#00AC47"/>
<path d="M40.4399 45.2268C41.1821 44.7869 41.8144 44.1821 42.2543 43.4123L43.134 41.9003L47.3402 34.6151C47.7801 33.8453 48 32.9931 48 32.1409H32.8786L36.0962 38.4639L40.4399 45.2268Z" fill="#EA4335"/>
<path d="M24 16.7457L31.5602 3.65979C30.8179 3.21993 29.9657 3 29.0859 3H18.9141C18.0344 3 17.1821 3.24742 16.4399 3.65979L24 16.7457Z" fill="#00832D"/>
<path d="M32.8797 32.1409H15.1203L7.56013 45.2268C8.3024 45.6666 9.15464 45.8866 10.0344 45.8866H37.9656C38.8453 45.8866 39.6976 45.6391 40.4398 45.2268L32.8797 32.1409Z" fill="#2684FC"/>
<path d="M40.3574 17.5704L33.3746 5.47422C32.9347 4.70446 32.3024 4.09965 31.5601 3.65979L24 16.7457L32.8797 32.1409H47.9725C47.9725 31.2886 47.7526 30.4364 47.3127 29.6667L40.3574 17.5704Z" fill="#FFBA00"/>
</svg>
