<svg width="48" height="48" viewBox="0 0 48 48" fill="none" xmlns="http://www.w3.org/2000/svg">
<path d="M36.6316 11.3684H11.3684V36.6316H36.6316V11.3684Z" fill="white"/>
<path d="M16.5505 30.9663C15.6063 30.3284 14.9526 29.3968 14.5958 28.1653L16.7874 27.2621C16.9863 28.02 17.3337 28.6074 17.8295 29.0242C18.3221 29.4411 18.9221 29.6463 19.6232 29.6463C20.34 29.6463 20.9558 29.4284 21.4705 28.9926C21.9853 28.5568 22.2442 28.001 22.2442 27.3284C22.2442 26.64 21.9726 26.0779 21.4295 25.6421C20.8863 25.2063 20.2042 24.9884 19.3895 24.9884H18.1232V22.8189H19.26C19.9611 22.8189 20.5516 22.6295 21.0316 22.2505C21.5116 21.8716 21.7516 21.3537 21.7516 20.6937C21.7516 20.1063 21.5368 19.6389 21.1074 19.2884C20.6779 18.9379 20.1347 18.7611 19.4747 18.7611C18.8305 18.7611 18.319 18.9316 17.94 19.2758C17.5613 19.6209 17.2766 20.0567 17.1126 20.5421L14.9432 19.6389C15.2305 18.8242 15.7579 18.1042 16.5316 17.4821C17.3053 16.86 18.2937 16.5474 19.4937 16.5474C20.3811 16.5474 21.18 16.7179 21.8874 17.0621C22.5947 17.4063 23.1505 17.8832 23.5516 18.4895C23.9526 19.0989 24.1516 19.781 24.1516 20.5389C24.1516 21.3126 23.9653 21.9663 23.5926 22.5032C23.22 23.04 22.7621 23.4505 22.2189 23.7379V23.8674C22.9203 24.1565 23.5295 24.6314 23.9811 25.241C24.439 25.8568 24.6695 26.5926 24.6695 27.4516C24.6695 28.3105 24.4516 29.0779 24.0158 29.7505C23.58 30.4232 22.9768 30.9537 22.2126 31.3389C21.4453 31.7242 20.5832 31.92 19.6263 31.92C18.5179 31.9232 17.4947 31.6042 16.5505 30.9663V30.9663ZM30.0126 20.0905L27.6063 21.8305L26.4032 20.0053L30.72 16.8916H32.3747V31.5789H30.0126V20.0905Z" fill="#4285F4"/>
<path d="M36.6316 36.6316H11.3684V48H36.6316V36.6316Z" fill="#34A853"/>
<path d="M36.6316 0H3.78947C1.69579 0 0 1.69579 0 3.78947V36.6316H11.3684V11.3684H36.6316V0Z" fill="#4285F4"/>
<path d="M0 36.6316V44.2105C0 46.3042 1.69579 48 3.78947 48H11.3684V36.6316H0Z" fill="#188038"/>
<path d="M48 11.3684H36.6316V36.6316H48V11.3684Z" fill="#FBBC04"/>
<path d="M48 11.3684V3.78947C48 1.69579 46.3042 0 44.2105 0H36.6316V11.3684H48Z" fill="#1967D2"/>
<path d="M36.6316 48L48 36.6316H36.6316V48Z" fill="#EA4335"/>
</svg>
