<svg width="48" height="48" viewBox="0 0 48 48" fill="none" xmlns="http://www.w3.org/2000/svg">
<path d="M0 12C0 5.37258 5.37258 0 12 0H36C42.6274 0 48 5.37258 48 12V36C48 42.6274 42.6274 48 36 48H12C5.37258 48 0 42.6274 0 36V12Z" fill="#06C755"/>
<path d="M24.3999 11.2C16.2399 11.2 9.60001 16.5489 9.60001 23.1237C9.60001 29.018 14.8652 33.9543 21.9775 34.8877C22.4595 34.9908 23.1155 35.2032 23.2814 35.6122C23.4307 35.9837 23.379 36.5657 23.3291 36.9408C23.3291 36.9408 23.1555 37.9777 23.118 38.1985C23.0536 38.57 22.8207 39.6514 24.3999 38.9906C25.9796 38.3298 32.9233 34.0081 36.0283 30.4598C38.1727 28.1248 39.2 25.7551 39.2 23.1237C39.2 16.5489 32.561 11.2 24.3999 11.2Z" fill="white"/>
<path d="M20.2859 19.9999C20.1282 19.9999 20 20.1323 20 20.2948V26.9051C20 27.0679 20.1282 27.1999 20.2859 27.1999H21.3144C21.4721 27.1999 21.6 27.0679 21.6 26.9051V20.2948C21.6 20.1323 21.4721 19.9999 21.3144 19.9999H20.2859Z" fill="#06C755"/>
<path d="M28.4994 19.9999H27.4166C27.2506 19.9999 27.116 20.1323 27.116 20.2948V24.222L24.0337 20.1311C24.0266 20.1206 24.0187 20.1107 24.0104 20.1011L24.0083 20.0994C24.0024 20.0927 23.9965 20.0869 23.9902 20.0811C23.9885 20.0793 23.9867 20.0779 23.9846 20.0761C23.9796 20.0715 23.9743 20.0671 23.9686 20.063C23.9663 20.0607 23.9636 20.059 23.9609 20.0569C23.9556 20.0534 23.9506 20.0497 23.9453 20.0465C23.9423 20.0444 23.9393 20.0427 23.9361 20.0412C23.9308 20.038 23.9254 20.0348 23.9201 20.0322C23.9169 20.0308 23.9139 20.029 23.9106 20.0279C23.905 20.0252 23.8994 20.0226 23.8935 20.0206C23.8899 20.0194 23.887 20.0183 23.8837 20.0171C23.8778 20.0151 23.8719 20.013 23.8657 20.0116C23.8624 20.0104 23.8589 20.0098 23.8553 20.0087C23.8494 20.0075 23.8438 20.006 23.8381 20.0049C23.834 20.0043 23.8296 20.0037 23.8254 20.0034C23.8201 20.0023 23.8148 20.002 23.8094 20.0014C23.8044 20.0008 23.7994 20.0008 23.7941 20.0005C23.7902 20.0005 23.7872 19.9999 23.7834 19.9999H22.701C22.5349 19.9999 22.4 20.1323 22.4 20.2948V26.9051C22.4 27.0679 22.5349 27.1999 22.701 27.1999H23.7834C23.9497 27.1999 24.0843 27.0679 24.0843 26.9051V22.979L27.1704 27.0752C27.1917 27.1048 27.2181 27.129 27.2468 27.1482C27.2477 27.1488 27.2488 27.1496 27.2497 27.1505C27.2559 27.1543 27.2622 27.1581 27.2684 27.1616C27.2713 27.1633 27.274 27.1645 27.2769 27.1659C27.2814 27.1685 27.2864 27.1709 27.2912 27.1729C27.2962 27.1749 27.3006 27.177 27.3059 27.179C27.3089 27.1802 27.3119 27.1813 27.3148 27.1822C27.3219 27.1848 27.3284 27.1869 27.3352 27.1889C27.3367 27.1889 27.3382 27.1895 27.3397 27.1898C27.3642 27.1962 27.39 27.1999 27.4166 27.1999H28.4994C28.6657 27.1999 28.8 27.0679 28.8 26.9051V20.2948C28.8 20.1323 28.6657 19.9999 28.4994 19.9999Z" fill="#06C755"/>
<path d="M18.9076 25.5447H16.041V20.2954C16.041 20.1323 15.9098 19.9999 15.7483 19.9999H14.693C14.5312 19.9999 14.4 20.1323 14.4 20.2954V26.9042V26.9048C14.4 26.9842 14.4314 27.056 14.4819 27.1089C14.4831 27.1104 14.4842 27.1118 14.4859 27.1133C14.4874 27.1147 14.4888 27.1159 14.4903 27.1174C14.543 27.1685 14.614 27.1999 14.6927 27.1999H18.9076C19.0694 27.1999 19.2 27.0673 19.2 26.9042V25.8401C19.2 25.677 19.0694 25.5447 18.9076 25.5447Z" fill="#06C755"/>
<path d="M34.1076 21.6552C34.2694 21.6552 34.4 21.5232 34.4 21.3597V20.2957C34.4 20.1325 34.2694 19.9999 34.1076 19.9999H29.893H29.8924C29.8134 19.9999 29.7422 20.0319 29.6894 20.0834C29.6882 20.0846 29.6868 20.0854 29.6859 20.0866C29.6842 20.0883 29.6828 20.0901 29.6813 20.0918C29.6311 20.1448 29.6 20.2163 29.6 20.2954V20.2957V26.9045V26.9048C29.6 26.9842 29.6314 27.056 29.6819 27.1089C29.683 27.1104 29.6845 27.1121 29.6859 27.1133C29.6871 27.1147 29.6888 27.1162 29.6903 27.1174C29.7427 27.1682 29.814 27.1999 29.8924 27.1999H34.1076C34.2694 27.1999 34.4 27.0673 34.4 26.9045V25.8401C34.4 25.6773 34.2694 25.5447 34.1076 25.5447H31.2412V24.4274H34.1076C34.2694 24.4274 34.4 24.2951 34.4 24.132V23.0679C34.4 22.9048 34.2694 22.7722 34.1076 22.7722H31.2412V21.6552H34.1076Z" fill="#06C755"/>
</svg>
