<?xml version="1.0" encoding="utf-8"?>
<!-- Generator: Adobe Illustrator 24.0.3, SVG Export Plug-In . SVG Version: 6.00 Build 0)  -->
<svg version="1.1" id="Capa_1" xmlns="http://www.w3.org/2000/svg" xmlns:xlink="http://www.w3.org/1999/xlink" x="0px" y="0px"
	 viewBox="0 0 256 256" style="enable-background:new 0 0 256 256;" xml:space="preserve">
<style type="text/css">
	.st0{fill:#666666;}
	.st1{fill:#FE6A16;}
	.st2{fill:#EA4006;}
	.st3{fill:none;}
	.st4{fill:#FFCE00;}
	.st5{fill:#FDBA12;}
	.st6{fill:#FFFFFF;}
	.st7{fill:#E9EDF5;}
</style>
<g>
	<path class="st0" d="M-649.5,226.8h-130.2V40.9h37.2v148.7h93V226.8z"/>
	<path class="st0" d="M-600.4,50.2c0,3.3-0.6,6.4-1.9,9.2c-1.3,2.9-3,5.3-5.1,7.5c-2.2,2.1-4.7,3.8-7.6,5.1c-2.9,1.3-6,1.9-9.3,1.9
		c-3.3,0-6.4-0.6-9.3-1.9c-2.9-1.3-5.4-2.9-7.5-5.1c-2.1-2.1-3.8-4.6-5.1-7.5c-1.3-2.9-1.9-5.9-1.9-9.2c0-3.2,0.6-6.2,1.9-9.1
		c1.3-2.9,2.9-5.4,5.1-7.5c2.1-2.1,4.6-3.8,7.5-5.1c2.9-1.3,6-1.9,9.3-1.9c3.3,0,6.4,0.6,9.3,1.9c2.9,1.3,5.4,2.9,7.6,5.1
		c2.2,2.1,3.9,4.6,5.1,7.5C-601,44-600.4,47-600.4,50.2z M-606.5,226.8h-35.7V87.9h35.7V226.8z"/>
	<path class="st0" d="M-552.3,226.8h-35.4V87.9h8.6l11.7,13.5c5.7-5.2,12.2-9.2,19.4-12c7.2-2.8,14.8-4.2,22.6-4.2
		c8.5,0,16.5,1.6,24,4.9c7.5,3.2,14.1,7.7,19.7,13.4c5.6,5.7,10,12.3,13.3,19.8c3.2,7.6,4.9,15.6,4.9,24.2v79.4h-35.4v-79.4
		c0-3.6-0.7-7.1-2.1-10.3c-1.4-3.2-3.3-6.1-5.7-8.5c-2.4-2.4-5.2-4.3-8.4-5.7c-3.2-1.4-6.6-2.1-10.2-2.1c-3.7,0-7.2,0.7-10.5,2.1
		c-3.3,1.4-6.1,3.3-8.6,5.7c-2.4,2.4-4.3,5.3-5.7,8.5c-1.4,3.2-2.1,6.7-2.1,10.3V226.8z"/>
	<path class="st0" d="M-411.1,226.8h-35.7V32.7h35.7v122.4l52.8-66.9h40.7l-46,57.8l46,80.8h-40.7l-28.1-50.4l-24.6,32.7V226.8z"/>
	<path class="st0" d="M-260.9,192.8c1.4,0.4,2.8,0.7,4.1,0.8c1.4,0.1,2.8,0.2,4.1,0.2c3.5,0,6.8-0.5,10-1.4c3.2-1,6.2-2.3,9-4.1
		c2.8-1.8,5.3-3.9,7.5-6.5c2.2-2.5,4-5.4,5.4-8.5l25.9,26.1c-3.3,4.7-7.1,8.9-11.3,12.6c-4.3,3.7-8.9,6.9-13.9,9.5
		c-5,2.6-10.2,4.6-15.7,5.9c-5.5,1.3-11.1,2-16.9,2c-9.8,0-19-1.8-27.6-5.4c-8.6-3.6-16.1-8.7-22.6-15.2
		c-6.4-6.5-11.5-14.2-15.2-23.1c-3.7-8.9-5.6-18.8-5.6-29.5c0-11,1.9-21,5.6-30.1c3.7-9.1,8.8-16.8,15.2-23.2
		c6.4-6.4,14-11.4,22.6-14.9c8.6-3.5,17.8-5.3,27.6-5.3c5.8,0,11.5,0.7,17,2.1c5.5,1.4,10.8,3.4,15.8,6c5,2.6,9.6,5.8,13.9,9.5
		c4.3,3.8,8.1,8,11.4,12.6L-260.9,192.8z M-242.7,119.8c-1.6-0.6-3.3-1-4.9-1.2c-1.6-0.2-3.3-0.3-5-0.3c-4.8,0-9.4,0.9-13.7,2.7
		c-4.3,1.8-8,4.3-11.2,7.6c-3.2,3.3-5.6,7.2-7.5,11.9c-1.8,4.6-2.7,9.8-2.7,15.6c0,1.3,0.1,2.8,0.2,4.4c0.1,1.6,0.3,3.3,0.6,5
		c0.3,1.7,0.7,3.3,1.1,4.9c0.4,1.6,1,2.9,1.7,4.1L-242.7,119.8z"/>
	<path class="st0" d="M-51.5,226.8h-8.6l-13.7-19.1c-3.4,3-6.9,5.9-10.7,8.5c-3.8,2.6-7.7,4.9-11.9,6.9c-4.1,1.9-8.4,3.5-12.8,4.6
		c-4.4,1.1-8.8,1.7-13.3,1.7c-9.8,0-19-1.6-27.6-4.9c-8.6-3.3-16.1-8.1-22.6-14.3c-6.4-6.3-11.5-13.9-15.2-23
		c-3.7-9.1-5.6-19.4-5.6-31c0-10.8,1.9-20.7,5.6-29.8c3.7-9,8.8-16.8,15.2-23.3c6.4-6.5,14-11.5,22.6-15.1
		c8.6-3.6,17.8-5.4,27.6-5.4c4.5,0,8.9,0.6,13.4,1.7c4.4,1.1,8.7,2.7,12.8,4.7c4.1,2,8.1,4.3,11.9,7c3.8,2.7,7.3,5.6,10.6,8.7
		l13.7-16.5h8.6V226.8z M-87.2,156.1c0-4.8-0.9-9.5-2.8-14.1c-1.9-4.5-4.4-8.6-7.6-12.1c-3.2-3.5-6.9-6.3-11.2-8.4
		c-4.3-2.1-8.8-3.2-13.7-3.2c-4.8,0-9.4,0.8-13.7,2.5c-4.3,1.6-8,4.1-11.2,7.3c-3.2,3.2-5.6,7.2-7.5,11.9
		c-1.8,4.7-2.7,10.1-2.7,16.1c0,6.1,0.9,11.4,2.7,16.1c1.8,4.7,4.3,8.7,7.5,11.9c3.2,3.2,6.9,5.6,11.2,7.3c4.3,1.6,8.8,2.5,13.7,2.5
		c4.8,0,9.4-1.1,13.7-3.2c4.3-2.1,8-4.9,11.2-8.4c3.2-3.5,5.7-7.5,7.6-12.1C-88.1,165.7-87.2,161-87.2,156.1z"/>
	<g>
		<g>
			<g>
				<g>
					<g>
						<g>
							<g>
								<g>
									<g>
										<circle class="st1" cx="-906.5" cy="126.8" r="100"/>
									</g>
								</g>
							</g>
						</g>
					</g>
				</g>
			</g>
		</g>
		<path class="st2" d="M-807.2,114.8c-0.6-4.6-1.4-9.1-2.6-13.4l-47.6-37.3l-54.2,20.8l-38.3,57.1l-8.6,45l2.6,2.3l48.2,37.5
			c4.4,0,8.8-0.2,13.3-0.7C-839.6,219.4-800.5,169.6-807.2,114.8z"/>
		<g>
			<g>
				<path class="st3" d="M-933,136.3l-13.2,16.8c-5.1,6.5-4,16,2.6,21.1c6.5,5.1,16,4,21.1-2.6l13.2-16.8c-4.9-1.1-9.7-3.2-14-6.6
					C-927.5,144.9-930.8,140.8-933,136.3L-933,136.3z"/>
			</g>
			<g>
				<path class="st3" d="M-880,117.4l13.2-16.8c5.1-6.5,4-16-2.6-21.1c-6.5-5.1-16-4-21.1,2.6l-13.2,16.8c4.9,1.1,9.7,3.2,14,6.6
					C-885.4,108.7-882.2,112.8-880,117.4L-880,117.4z"/>
			</g>
			<g>
				
					<ellipse transform="matrix(0.6168 -0.7871 0.7871 0.6168 -447.1497 -664.9009)" class="st3" cx="-906.5" cy="126.8" rx="7.7" ry="13.1"/>
			</g>
			<g>
				<path class="st4" d="M-903.6,98.8l-10.2,13c-1.6,2.1-2.6,4.5-3,6.9c4.9-2,10.6-1.4,15.1,2c4.4,3.5,6.4,9,5.6,14.2
					c-0.4,2.5-1.4,4.9-3,6.9l-10.2,13l-13.2,16.8c-5.1,6.5-14.6,7.7-21.1,2.6c-6.5-5.1-7.7-14.6-2.6-21.1l13.2-16.8
					c-4.6-9.4-4.8-20.6-0.1-30.3c-1.9,1.5-3.6,3.3-5.1,5.3l-23.3,29.8c-11.8,15-9.1,36.8,5.9,48.5s36.8,9.1,48.5-5.9l23.3-29.8
					c1.6-2,2.9-4.1,3.9-6.3c4.7-9.7,4.5-20.9-0.1-30.3c-2.2-4.5-5.5-8.7-9.7-12C-893.9,102.1-898.7,99.9-903.6,98.8L-903.6,98.8z"/>
			</g>
			<g>
				<path class="st5" d="M-901.7,120.7c4.4,3.5,6.4,9,5.6,14.2c-0.4,2.5-1.4,4.9-3,6.9l-10.2,13l-13.2,16.8
					c-5.1,6.5-14.6,7.7-21.1,2.6c-0.1-0.1-0.2-0.2-0.3-0.3l-12,15.4c0.1,0.1,0.2,0.2,0.3,0.2c15,11.8,36.8,9.1,48.5-5.9l23.3-29.8
					c1.6-2,2.9-4.1,3.9-6.3c4.7-9.7,4.5-20.9-0.1-30.3c-2.2-4.5-5.5-8.7-9.7-12L-901.7,120.7z"/>
			</g>
			<g>
				<path class="st6" d="M-905.8,70l-23.3,29.8c-1.6,2-2.9,4.1-3.9,6.3c-4.7,9.7-4.5,20.9,0.1,30.3c2.2,4.5,5.5,8.7,9.7,12
					c4.2,3.3,9,5.5,14,6.6l10.2-13c1.6-2.1,2.6-4.5,3-6.9c-4.9,2-10.6,1.4-15.1-2c-4.4-3.5-6.4-9-5.6-14.2c0.4-2.5,1.4-4.9,3-6.9
					l10.2-13l13.2-16.8c5.1-6.5,14.6-7.7,21.1-2.6c6.5,5.1,7.7,14.6,2.6,21.1l-13.2,16.8c4.6,9.4,4.8,20.6,0.1,30.3
					c1.9-1.5,3.6-3.3,5.1-5.3l23.3-29.8c11.8-15,9.1-36.8-5.9-48.5S-894.1,55-905.8,70L-905.8,70z"/>
			</g>
			<g>
				<path class="st7" d="M-923.3,148.2c4.2,3.3,9,5.5,14,6.6l10.2-13c1.6-2.1,2.6-4.5,3-6.9c-4.9,2-10.6,1.4-15.1-2L-923.3,148.2z"
					/>
				<path class="st7" d="M-869.4,79.5c6.5,5.1,7.7,14.6,2.6,21.1l-13.2,16.8c4.6,9.4,4.8,20.6,0.1,30.3c1.9-1.5,3.6-3.3,5.1-5.3
					l23.3-29.8c11.8-15,9.1-36.8-5.9-48.5L-869.4,79.5z"/>
			</g>
		</g>
	</g>
</g>
<g>
	<g>
		<g>
			<g>
				<g>
					<g>
						<g>
							<g>
								<g>
									<circle class="st1" cx="128" cy="128" r="128"/>
								</g>
							</g>
						</g>
					</g>
				</g>
			</g>
		</g>
	</g>
	<path class="st2" d="M255.1,112.6c-0.7-5.9-1.8-11.6-3.3-17.2l-60.9-47.7l-69.4,26.6l-49,73.1l-11.1,57.6l3.3,3l61.7,48
		c5.6,0.1,11.3-0.2,17-0.9C213.6,246.5,263.6,182.8,255.1,112.6z"/>
	<g>
		<g>
			<path class="st3" d="M94.1,140.1l-16.8,21.5c-6.5,8.3-5.1,20.5,3.3,27c8.3,6.5,20.5,5.1,27-3.3l16.8-21.5
				c-6.3-1.4-12.4-4.1-17.9-8.4C101.1,151.2,96.9,145.9,94.1,140.1L94.1,140.1z"/>
		</g>
		<g>
			<path class="st3" d="M161.9,115.9l16.8-21.5c6.5-8.3,5.1-20.5-3.3-27c-8.3-6.5-20.5-5.1-27,3.3l-16.8,21.5
				c6.3,1.4,12.4,4.1,17.9,8.4C154.9,104.8,159.1,110.1,161.9,115.9L161.9,115.9z"/>
		</g>
		<g>
			<ellipse transform="matrix(0.6168 -0.7871 0.7871 0.6168 -51.7131 149.766)" class="st3" cx="128" cy="128" rx="9.9" ry="16.8"/>
		</g>
		<g>
			<path class="st4" d="M131.6,92.2l-13,16.6c-2.1,2.7-3.4,5.7-3.9,8.9c6.2-2.6,13.6-1.8,19.3,2.6c5.7,4.4,8.2,11.5,7.1,18.1
				c-0.5,3.1-1.8,6.2-3.9,8.9l-13,16.6l-16.8,21.5c-6.5,8.3-18.7,9.8-27,3.3c-8.3-6.5-9.8-18.7-3.3-27l16.8-21.5
				c-5.9-12-6.1-26.4-0.1-38.8c-2.4,2-4.6,4.2-6.6,6.8l-29.8,38.1c-15,19.2-11.7,47.1,7.5,62.1s47.1,11.7,62.1-7.5l29.8-38.1
				c2-2.5,3.6-5.2,5-8c6-12.4,5.8-26.7-0.1-38.8c-2.8-5.8-7-11.1-12.4-15.3C144.1,96.3,138,93.5,131.6,92.2L131.6,92.2z"/>
		</g>
		<g>
			<path class="st5" d="M134.1,120.2c5.7,4.4,8.2,11.5,7.1,18.1c-0.5,3.1-1.8,6.2-3.9,8.9l-13,16.6l-16.8,21.5
				c-6.5,8.3-18.7,9.8-27,3.3c-0.1-0.1-0.3-0.2-0.4-0.3L64.7,208c0.1,0.1,0.2,0.2,0.4,0.3c19.2,15,47.1,11.7,62.1-7.5l29.8-38.1
				c2-2.5,3.6-5.2,5-8c6-12.4,5.8-26.7-0.1-38.8c-2.8-5.8-7-11.1-12.4-15.3L134.1,120.2z"/>
		</g>
		<g>
			<path class="st6" d="M128.8,55.2L99,93.3c-2,2.5-3.6,5.2-5,8c-6,12.4-5.8,26.7,0.1,38.8c2.8,5.8,7,11.1,12.4,15.3
				c5.4,4.2,11.5,7,17.9,8.4l13-16.6c2.1-2.7,3.4-5.7,3.9-8.9c-6.2,2.6-13.6,1.8-19.3-2.6c-5.7-4.4-8.2-11.5-7.1-18.1
				c0.5-3.1,1.8-6.2,3.9-8.9l13-16.6l16.8-21.5c6.5-8.3,18.7-9.8,27-3.3c8.3,6.5,9.8,18.7,3.3,27l-16.8,21.5
				c5.9,12,6.1,26.4,0.1,38.8c2.4-2,4.6-4.2,6.6-6.8l29.8-38.1c15-19.2,11.7-47.1-7.5-62.1S143.9,36,128.8,55.2L128.8,55.2z"/>
		</g>
		<g>
			<path class="st7" d="M106.5,155.4c5.4,4.2,11.5,7,17.9,8.4l13-16.6c2.1-2.7,3.4-5.7,3.9-8.9c-6.2,2.6-13.6,1.8-19.3-2.6
				L106.5,155.4z"/>
			<path class="st7" d="M175.5,67.4c8.3,6.5,9.8,18.7,3.3,27l-16.8,21.5c5.9,12,6.1,26.4,0.1,38.8c2.4-2,4.6-4.2,6.6-6.8l29.8-38.1
				c15-19.2,11.7-47.1-7.5-62.1L175.5,67.4z"/>
		</g>
	</g>
</g>
</svg>
