<svg width="48" height="48" viewBox="0 0 48 48" fill="none" xmlns="http://www.w3.org/2000/svg">
<path d="M24 48C37.2548 48 48 37.2548 48 24C48 10.7452 37.2548 0 24 0C10.7452 0 0 10.7452 0 24C0 37.2548 10.7452 48 24 48Z" fill="white"/>
<path d="M38.3789 24.1157C38.3789 29.0386 34.3956 33.0294 29.482 33.0294C24.5684 33.0294 20.5851 29.0386 20.5851 24.1157C20.5851 19.1928 24.5684 15.2019 29.482 15.2019C34.3956 15.2019 38.3789 19.1928 38.3789 24.1157V24.1157Z" fill="#F79F1A"/>
<path d="M27.4032 24.1157C27.4032 29.0386 23.42 33.0294 18.5063 33.0294C13.5927 33.0294 9.60944 29.0386 9.60944 24.1157C9.60944 19.1928 13.5927 15.2019 18.5063 15.2019C23.42 15.2019 27.4032 19.1928 27.4032 24.1157V24.1157Z" fill="#EA001B"/>
<path d="M23.9942 17.0987C21.9183 18.7305 20.5858 21.2663 20.5858 24.1148C20.5858 26.9634 21.9183 29.5011 23.9942 31.1329C26.07 29.5011 27.4026 26.9634 27.4026 24.1148C27.4026 21.2663 26.07 18.7305 23.9942 17.0987V17.0987Z" fill="#FF5F01"/>
</svg>
