<svg width="50" height="48" viewBox="0 0 50 48" fill="none" xmlns="http://www.w3.org/2000/svg">
<path d="M46.6094 2L27.88 15.9106L31.3435 7.70353L46.6094 2Z" fill="#E2761B" stroke="#E2761B" stroke-linecap="round" stroke-linejoin="round"/>
<path d="M3.37177 2L21.9506 16.0424L18.6565 7.70353L3.37177 2Z" fill="#E4761B" stroke="#E4761B" stroke-linecap="round" stroke-linejoin="round"/>
<path d="M39.8706 34.2447L34.8824 41.887L45.5553 44.8235L48.6235 34.4141L39.8706 34.2447Z" fill="#E4761B" stroke="#E4761B" stroke-linecap="round" stroke-linejoin="round"/>
<path d="M1.39529 34.4141L4.44471 44.8235L15.1176 41.887L10.1294 34.2447L1.39529 34.4141Z" fill="#E4761B" stroke="#E4761B" stroke-linecap="round" stroke-linejoin="round"/>
<path d="M14.5153 21.3318L11.5412 25.8306L22.1388 26.3012L21.7624 14.913L14.5153 21.3318Z" fill="#E4761B" stroke="#E4761B" stroke-linecap="round" stroke-linejoin="round"/>
<path d="M35.4659 21.3317L28.1247 14.7812L27.88 26.3012L38.4588 25.8306L35.4659 21.3317Z" fill="#E4761B" stroke="#E4761B" stroke-linecap="round" stroke-linejoin="round"/>
<path d="M15.1176 41.8871L21.48 38.7812L15.9835 34.4894L15.1176 41.8871Z" fill="#E4761B" stroke="#E4761B" stroke-linecap="round" stroke-linejoin="round"/>
<path d="M28.5012 38.7812L34.8824 41.8871L33.9976 34.4894L28.5012 38.7812Z" fill="#E4761B" stroke="#E4761B" stroke-linecap="round" stroke-linejoin="round"/>
<path d="M34.8823 41.8871L28.5012 38.7812L29.0094 42.9412L28.9529 44.6918L34.8823 41.8871Z" fill="#D7C1B3" stroke="#D7C1B3" stroke-linecap="round" stroke-linejoin="round"/>
<path d="M15.1176 41.887L21.0471 44.6917L21.0094 42.9412L21.48 38.7812L15.1176 41.887Z" fill="#D7C1B3" stroke="#D7C1B3" stroke-linecap="round" stroke-linejoin="round"/>
<path d="M21.1412 31.7412L15.8329 30.1788L19.5788 28.4659L21.1412 31.7412Z" fill="#233447" stroke="#233447" stroke-linecap="round" stroke-linejoin="round"/>
<path d="M28.84 31.7412L30.4024 28.4659L34.1671 30.1788L28.84 31.7412Z" fill="#233447" stroke="#233447" stroke-linecap="round" stroke-linejoin="round"/>
<path d="M15.1176 41.8872L16.0212 34.2448L10.1294 34.4143L15.1176 41.8872Z" fill="#CD6116" stroke="#CD6116" stroke-linecap="round" stroke-linejoin="round"/>
<path d="M33.9788 34.2448L34.8824 41.8872L39.8706 34.4143L33.9788 34.2448Z" fill="#CD6116" stroke="#CD6116" stroke-linecap="round" stroke-linejoin="round"/>
<path d="M38.4588 25.8307L27.88 26.3013L28.8588 31.7413L30.4212 28.466L34.1859 30.1789L38.4588 25.8307Z" fill="#CD6116" stroke="#CD6116" stroke-linecap="round" stroke-linejoin="round"/>
<path d="M15.8329 30.1789L19.5977 28.466L21.1412 31.7413L22.1388 26.3013L11.5412 25.8307L15.8329 30.1789Z" fill="#CD6116" stroke="#CD6116" stroke-linecap="round" stroke-linejoin="round"/>
<path d="M11.5412 25.8306L15.9835 34.4895L15.8329 30.1789L11.5412 25.8306Z" fill="#E4751F" stroke="#E4751F" stroke-linecap="round" stroke-linejoin="round"/>
<path d="M34.1859 30.1789L33.9976 34.4895L38.4588 25.8307L34.1859 30.1789Z" fill="#E4751F" stroke="#E4751F" stroke-linecap="round" stroke-linejoin="round"/>
<path d="M22.1388 26.3013L21.1412 31.7413L22.3835 38.1601L22.6659 29.7083L22.1388 26.3013Z" fill="#E4751F" stroke="#E4751F" stroke-linecap="round" stroke-linejoin="round"/>
<path d="M27.88 26.3013L27.3717 29.6895L27.5976 38.1601L28.8588 31.7413L27.88 26.3013Z" fill="#E4751F" stroke="#E4751F" stroke-linecap="round" stroke-linejoin="round"/>
<path d="M28.8588 31.7412L27.5976 38.16L28.5012 38.7812L33.9976 34.4895L34.1859 30.1789L28.8588 31.7412Z" fill="#F6851B" stroke="#F6851B" stroke-linecap="round" stroke-linejoin="round"/>
<path d="M15.8329 30.1789L15.9835 34.4895L21.48 38.7812L22.3835 38.16L21.1412 31.7412L15.8329 30.1789Z" fill="#F6851B" stroke="#F6851B" stroke-linecap="round" stroke-linejoin="round"/>
<path d="M28.9529 44.6918L29.0094 42.9412L28.5388 42.5271H21.4424L21.0094 42.9412L21.0471 44.6918L15.1176 41.8871L17.1882 43.5812L21.3859 46.4988H28.5953L32.8118 43.5812L34.8824 41.8871L28.9529 44.6918Z" fill="#C0AD9E" stroke="#C0AD9E" stroke-linecap="round" stroke-linejoin="round"/>
<path d="M28.5012 38.7812L27.5977 38.16H22.3835L21.48 38.7812L21.0094 42.9412L21.4424 42.5271H28.5388L29.0094 42.9412L28.5012 38.7812Z" fill="#161616" stroke="#161616" stroke-linecap="round" stroke-linejoin="round"/>
<path d="M47.4 16.8141L49 9.13412L46.6094 2L28.5012 15.44L35.4659 21.3318L45.3106 24.2118L47.4941 21.6706L46.5529 20.9929L48.0588 19.6188L46.8918 18.7153L48.3976 17.5671L47.4 16.8141Z" fill="#763D16" stroke="#763D16" stroke-linecap="round" stroke-linejoin="round"/>
<path d="M1 9.13412L2.6 16.8141L1.58353 17.5671L3.08941 18.7153L1.94118 19.6188L3.44706 20.9929L2.50588 21.6706L4.67059 24.2118L14.5153 21.3318L21.48 15.44L3.37177 2L1 9.13412Z" fill="#763D16" stroke="#763D16" stroke-linecap="round" stroke-linejoin="round"/>
<path d="M45.3106 24.2118L35.4659 21.3318L38.4588 25.8306L33.9977 34.4894L39.8706 34.4141H48.6235L45.3106 24.2118Z" fill="#F6851B" stroke="#F6851B" stroke-linecap="round" stroke-linejoin="round"/>
<path d="M14.5153 21.3318L4.6706 24.2118L1.39531 34.4141H10.1294L15.9835 34.4894L11.5412 25.8306L14.5153 21.3318Z" fill="#F6851B" stroke="#F6851B" stroke-linecap="round" stroke-linejoin="round"/>
<path d="M27.88 26.3011L28.5012 15.44L31.3623 7.70349H18.6565L21.48 15.44L22.1388 26.3011L22.3647 29.727L22.3835 38.16H27.5976L27.6353 29.727L27.88 26.3011Z" fill="#F6851B" stroke="#F6851B" stroke-linecap="round" stroke-linejoin="round"/>
</svg>
