<svg width="48" height="48" viewBox="0 0 48 48" fill="none" xmlns="http://www.w3.org/2000/svg">
<path d="M30.1395 23.2093L11.1628 19.8605V44.605C11.1628 45.7351 12.0789 46.6512 13.2089 46.6512H45.9539C47.0839 46.6512 48 45.7351 48 44.605V35.4884L30.1395 23.2093Z" fill="#185C37"/>
<path d="M30.1395 2H13.2089C12.0789 2 11.1628 2.91608 11.1628 4.04613V13.1628L30.1395 24.3256L40.186 27.6744L48 24.3256V13.1628L30.1395 2Z" fill="#21A366"/>
<path d="M11.1628 13.1628H30.1395V24.3256H11.1628V13.1628Z" fill="#107C41"/>
<path opacity="0.1" d="M24.7446 10.9302H11.1628V38.8372H24.7446C25.8731 38.8335 26.787 37.9195 26.7907 36.791V12.9763C26.787 11.8478 25.8731 10.9338 24.7446 10.9302Z" fill="black"/>
<path opacity="0.2" d="M23.6283 12.0465H11.1628V39.9535H23.6283C24.7568 39.9498 25.6707 39.0359 25.6744 37.9074V14.0926C25.6707 12.9641 24.7568 12.0502 23.6283 12.0465Z" fill="black"/>
<path opacity="0.2" d="M23.6283 12.0465H11.1628V37.7209H23.6283C24.7568 37.7173 25.6707 36.8033 25.6744 35.6748V14.0926C25.6707 12.9641 24.7568 12.0502 23.6283 12.0465Z" fill="black"/>
<path opacity="0.2" d="M22.512 12.0465H11.1628V37.7209H22.512C23.6405 37.7173 24.5545 36.8033 24.5581 35.6748V14.0926C24.5545 12.9641 23.6405 12.0502 22.512 12.0465Z" fill="black"/>
<path d="M2.04613 12.0465H22.512C23.642 12.0465 24.5581 12.9626 24.5581 14.0926V34.5585C24.5581 35.6885 23.642 36.6046 22.512 36.6046H2.04613C0.916083 36.6046 0 35.6886 0 34.5585V14.0926C0 12.9626 0.916083 12.0465 2.04613 12.0465Z" fill="url(#paint0_linear_147648_1454)"/>
<path d="M6.3371 30.9764L10.6415 24.3066L6.69766 17.6737H9.87012L12.0223 21.9156C12.221 22.3185 12.3572 22.6177 12.4309 22.8153H12.4588C12.6002 22.4938 12.749 22.1816 12.9053 21.8787L15.2059 17.6759H18.1183L14.074 24.2698L18.221 30.9764H15.1222L12.6363 26.3204C12.5192 26.1223 12.4198 25.9142 12.3393 25.6987H12.3025C12.2297 25.9099 12.1331 26.1121 12.0145 26.3014L9.45488 30.9764H6.3371Z" fill="white"/>
<path d="M45.9539 2H30.1395V13.1628H48V4.04613C48 2.91608 47.0839 2 45.9539 2Z" fill="#33C481"/>
<path d="M30.1395 24.3256H48V35.4884H30.1395V24.3256Z" fill="#107C41"/>
<defs>
<linearGradient id="paint0_linear_147648_1454" x1="4.26624" y1="10.4477" x2="20.2919" y2="38.2035" gradientUnits="userSpaceOnUse">
<stop stop-color="#18884F"/>
<stop offset="0.5" stop-color="#117E43"/>
<stop offset="1" stop-color="#0B6631"/>
</linearGradient>
</defs>
</svg>
