<svg width="48" height="48" viewBox="0 0 48 48" fill="none" xmlns="http://www.w3.org/2000/svg">
<path d="M18.6667 5.00004L18.6667 39.8324L26.1009 42.3334L26.1009 13.1169C26.1009 11.749 26.6798 10.8348 27.6026 11.1524C28.8183 11.5087 29.0558 12.7706 29.0558 14.1384L29.0558 25.8064C33.6863 28.1758 37.3333 25.805 37.3333 19.5396C37.3333 13.1169 35.2002 10.2667 28.9047 7.97606C26.4302 7.09184 21.8252 5.61957 18.6667 5.00004" fill="black"/>
<path d="M28 37.9135L40.1214 33.5353C41.4924 33.0376 41.7058 32.3333 40.5907 31.9631C39.4728 31.5916 37.4492 31.6997 36.0741 32.1988L28 35.0797V30.4908L28.4652 30.3327C28.4652 30.3327 30.7995 29.4967 34.0819 29.1293C37.363 28.7619 41.3815 29.1764 44.534 30.3882C48.0901 31.5292 48.491 33.2053 47.5893 34.3602C46.6835 35.5151 44.4697 36.34 44.4697 36.34L28 42.3334V37.9135" fill="black"/>
<path d="M3.80498 35.6938C-0.191824 34.6207 -0.858208 32.3859 0.959748 31.0984C2.64742 29.9082 5.50614 29.0094 5.50614 29.0094L17.3333 24.9999V29.5695L8.82458 32.4773C7.3181 32.9946 7.08899 33.719 8.30944 34.102C9.53289 34.4849 11.7462 34.3763 13.2512 33.8591L17.3333 32.4487V36.5383C17.0728 36.584 16.7838 36.6268 16.5187 36.6697C12.4335 37.307 8.08632 37.0427 3.80498 35.6938" fill="black"/>
</svg>
