<svg width="48" height="48" viewBox="0 0 48 48" fill="none" xmlns="http://www.w3.org/2000/svg">
<path d="M0 24C0 10.7452 10.7452 0 24 0C37.2548 0 48 10.7452 48 24C48 37.2548 37.2548 48 24 48C10.7452 48 0 37.2548 0 24Z" fill="#A82400"/>
<path fill-rule="evenodd" clip-rule="evenodd" d="M34.5492 36.963L34.9035 39.4965L34.9014 39.4981C31.0257 41.0064 28.4616 38.8784 26.868 36.2572C25.3824 36.7261 21.6336 36.5888 20.1655 36.29C13.7313 34.9144 10 29.8833 10 22.5686C10 20.1407 10.3962 18.1871 11.1655 16.3923C13.5005 10.944 18.9237 7.67697 24.935 8.02534C31.2867 8.39331 35.5919 11.8219 37.0401 17.589C37.5889 19.7762 37.7733 23.5945 37.0425 26.0901C36.0899 29.5325 34.2752 32.2823 31.0071 34.4708C31.6416 36.4145 33.1568 37.0652 34.5492 36.963ZM16.9588 18.2266C16.4642 20.2143 16.4157 25.024 16.8696 27.0475L16.8708 27.0454C18.0229 31.2822 20.3029 33.6581 25.5095 32.8744C25.4139 31.6254 23.5451 30.3183 22.1785 30.6315L21.8339 28.2325C24.2893 27.3067 27.5663 28.3422 29.0076 30.701C29.5929 29.6758 30.0505 28.5458 30.3653 27.3934C31.27 24.1883 31.1534 20.5035 30.4395 17.3517C29.6629 14.6734 28.4167 12.9639 26.6222 12.1176C24.9715 11.3484 22.761 11.4705 20.9789 12.2601C18.9709 13.3502 17.7054 15.2279 16.9588 18.2266Z" fill="white"/>
</svg>
