<svg width="48" height="48" viewBox="0 0 48 48" fill="none" xmlns="http://www.w3.org/2000/svg">
<path d="M8 0C3.58172 0 0 3.58172 0 8V40C0 44.4183 3.58172 48 8 48H40C44.4183 48 48 44.4183 48 40V8C48 3.58172 44.4183 0 40 0H8Z" fill="#3A76F0"/>
<path d="M20.039 7.98282L20.4094 9.48282C18.9498 9.84353 17.553 10.4219 16.2656 11.1984L15.4734 9.87188C16.8904 9.01376 18.43 8.37675 20.039 7.98282V7.98282ZM27.9609 7.98282L27.5906 9.48282C29.0501 9.84353 30.447 10.4219 31.7344 11.1984L32.5359 9.87188C31.1152 9.01452 29.5727 8.37759 27.9609 7.98282V7.98282ZM9.87186 15.4688C9.01454 16.8878 8.3776 18.4288 7.9828 20.0391L9.4828 20.4094C9.84351 18.9499 10.4219 17.553 11.1984 16.2656L9.87186 15.4688ZM9.04686 24C9.04675 23.25 9.10316 22.501 9.21561 21.7594L7.68749 21.525C7.43905 23.1641 7.43905 24.8312 7.68749 26.4703L9.21561 26.2406C9.10333 25.499 9.04692 24.7501 9.04686 24V24ZM32.5266 38.1234L31.7344 36.8016C30.4491 37.5788 29.0536 38.1573 27.5953 38.5172L27.9656 40.0172C29.5727 39.6195 31.1104 38.981 32.5266 38.1234ZM38.9531 24C38.953 24.7501 38.8966 25.499 38.7844 26.2406L40.3125 26.4703C40.5609 24.8312 40.5609 23.1641 40.3125 21.525L38.7844 21.7594C38.8968 22.501 38.9532 23.25 38.9531 24V24ZM40.0172 27.9563L38.5172 27.5859C38.1573 29.0472 37.5789 30.4458 36.8015 31.7344L38.1281 32.5313C38.9863 31.1109 39.6232 29.5683 40.0172 27.9563V27.9563ZM26.2406 38.7844C24.7553 39.0094 23.2446 39.0094 21.7594 38.7844L21.5297 40.3125C23.1672 40.561 24.8328 40.561 26.4703 40.3125L26.2406 38.7844ZM36.0375 32.8688C35.1465 34.0769 34.0782 35.1437 32.8687 36.0328L33.7875 37.2797C35.1197 36.299 36.2983 35.1251 37.2844 33.7969L36.0375 32.8688ZM32.8687 11.9625C34.0783 12.8534 35.1466 13.9216 36.0375 15.1313L37.2844 14.2031C36.3018 12.8737 35.1263 11.6982 33.7969 10.7156L32.8687 11.9625ZM11.9625 15.1313C12.8533 13.9216 13.9216 12.8534 15.1312 11.9625L14.2031 10.7156C12.8736 11.6982 11.6982 12.8737 10.7156 14.2031L11.9625 15.1313ZM38.1281 15.4688L36.8015 16.2656C37.5788 17.5509 38.1572 18.9464 38.5172 20.4047L40.0172 20.0344C39.6223 18.4256 38.9854 16.8862 38.1281 15.4688V15.4688ZM21.7594 9.21563C23.2446 8.9906 24.7553 8.9906 26.2406 9.21563L26.4703 7.68751C24.8328 7.43904 23.1672 7.43904 21.5297 7.68751L21.7594 9.21563ZM12.7547 37.6922L9.56249 38.4328L10.3078 35.2406L8.80311 34.8891L8.0578 38.0813C8.01116 38.2792 8.00401 38.4843 8.03674 38.685C8.06947 38.8857 8.14144 39.078 8.24854 39.2508C8.35564 39.4236 8.49577 39.5737 8.6609 39.6923C8.82604 39.8109 9.01294 39.8959 9.21092 39.9422C9.44246 39.9938 9.68251 39.9938 9.91405 39.9422L13.1062 39.2063L12.7547 37.6922ZM9.12186 33.5109L10.6312 33.8578L11.1469 31.6453C10.3939 30.3822 9.83305 29.0141 9.4828 27.5859L7.9828 27.9563C8.3202 29.3233 8.83056 30.6418 9.50155 31.8797L9.12186 33.5109ZM16.3406 36.8578L14.1281 37.3734L14.4797 38.8828L16.1062 38.5031C17.3432 39.1761 18.6619 39.6866 20.0297 40.0219L20.4 38.5219C18.9763 38.167 17.613 37.6031 16.3547 36.8484L16.3406 36.8578ZM24 10.5938C16.5937 10.5984 10.5984 16.6031 10.5984 24.0047C10.6025 26.5257 11.3156 28.9947 12.6562 31.1297L11.3672 36.6328L16.8656 35.3438C23.1328 39.2859 31.4109 37.4063 35.3531 31.1438C39.2953 24.8813 37.4203 16.6031 31.1578 12.6563C29.0139 11.308 26.5326 10.5931 24 10.5938" fill="white"/>
</svg>
