<svg width="48" height="48" viewBox="0 0 48 48" fill="none" xmlns="http://www.w3.org/2000/svg">
<path d="M42.9843 0H4.95942C2.20058 0.0355307 -0.0132146 2.2598 5.93821e-05 4.98281V43.0172C-0.0131079 45.7509 2.21769 47.9796 4.98755 48H43.0125C45.7823 47.9796 48.0131 45.7509 47.9999 43.0172V4.98281C48.0063 3.66505 47.4809 2.39899 46.5399 1.46412C45.5989 0.529248 44.3195 0.00244381 42.9843 0V0Z" fill="url(#paint0_linear_147648_1191)"/>
<path d="M23.9813 43.8468C12.9561 43.7628 4.08414 34.8804 4.15787 24C4.08414 13.1195 12.9561 4.23708 23.9813 4.15308C35.012 4.22946 43.8924 13.1141 43.8187 24C43.8924 34.8858 35.012 43.7704 23.9813 43.8468V43.8468Z" fill="white"/>
<path d="M42.6667 23.9976L28.709 17.3334L29.8304 21.6035H18.1696L19.291 17.3334L5.33334 24.0025L19.3005 30.6667L18.1792 26.3966H29.8399L28.7185 30.6667L42.6667 24.0025" fill="url(#paint1_linear_147648_1191)"/>
<defs>
<linearGradient id="paint0_linear_147648_1191" x1="48.0573" y1="48.1359" x2="48.0573" y2="-0.0151968" gradientUnits="userSpaceOnUse">
<stop stop-color="#096FD2"/>
<stop offset="1" stop-color="#0E8EE9"/>
</linearGradient>
<linearGradient id="paint1_linear_147648_1191" x1="37.9804" y1="30.6797" x2="37.9799" y2="17.34" gradientUnits="userSpaceOnUse">
<stop stop-color="#096FD2"/>
<stop offset="1" stop-color="#0E8EE9"/>
</linearGradient>
</defs>
</svg>
