<svg width="48" height="48" viewBox="0 0 48 48" fill="none" xmlns="http://www.w3.org/2000/svg">
<path d="M21.6 38.4387H25.0838V21.2516L21.6 20.0903V38.4387Z" fill="white"/>
<path d="M31.8194 13.6645C31.7807 15.9871 31.0452 17.1871 29.4968 17.1871C27.9097 17.1871 26.2839 16.3354 24.1161 15.2903C21.1742 13.8967 19.7807 13.5096 17.9613 13.5096C14.9807 13.5096 12.6581 15.9871 12.8129 20.2451H15.4065C15.4452 17.5354 16.4129 16.3354 17.9613 16.3354C19.5097 16.3354 21.1355 17.1484 23.1484 18.1548C26.129 19.5096 27.6774 20.129 29.4194 20.129C32.0903 20.129 34.5678 18.6967 34.3742 13.6645H31.8194Z" fill="white"/>
<path fill-rule="evenodd" clip-rule="evenodd" d="M0 23.9613C0 10.7613 10.7613 0 23.9613 0C37.2 0 47.9226 10.7613 47.9226 23.9613C47.9226 37.1613 37.1613 47.9226 23.9613 47.9226C10.7613 47.9226 0 37.1613 0 23.9613ZM1.54839 23.9613C1.54839 36.3484 11.6129 46.3742 23.9613 46.3742C36.3097 46.3742 46.3742 36.3097 46.3742 23.9613C46.3742 11.6129 36.3097 1.54839 23.9613 1.54839C11.6129 1.54839 1.54839 11.5742 1.54839 23.9613Z" fill="white"/>
</svg>
