<svg width="48" height="49" viewBox="0 0 48 49" fill="none" xmlns="http://www.w3.org/2000/svg">
<path d="M24.0531 0C22.9281 0 21.7994 0.22125 20.7794 0.7725C19.6956 1.35562 18.8069 2.28937 18.2612 3.39187C17.7137 4.49437 17.5 5.67187 17.4662 6.96937C17.4044 9.43312 17.5225 12.0169 17.7081 14.3587C17.7569 15.0712 17.8469 15.4875 17.755 16.2206C17.4512 17.7769 16.09 18.8231 15.3625 20.19C14.5619 21.6975 14.2244 23.4019 13.6206 24.9994C13.0675 26.46 12.2912 27.8306 11.7681 29.3025C11.035 31.3594 10.8156 33.6206 11.2994 35.7506C11.6687 37.3744 12.4394 38.8969 13.4781 40.2C13.3281 40.47 13.1819 40.7456 13.0281 41.0137C12.5462 41.8444 11.9575 42.6337 11.6837 43.5544C11.5469 44.0137 11.4925 44.505 11.5806 44.9775C11.6687 45.45 11.9087 45.9019 12.2837 46.2019C12.5294 46.3969 12.8275 46.5244 13.1331 46.5956C13.4387 46.665 13.7556 46.6819 14.0706 46.6762C15.265 46.65 16.4237 46.2881 17.5787 45.9844C18.265 45.8044 18.955 45.645 19.6469 45.5006C22.1106 44.9962 24.8594 45.1987 27.145 45.5287C27.9194 45.6469 28.6881 45.7987 29.4494 45.9844C30.6419 46.2731 31.8287 46.6406 33.055 46.6762C33.3775 46.6856 33.7037 46.6706 34.0187 46.6012C34.3337 46.53 34.6394 46.4025 34.8906 46.2019C35.2675 45.9019 35.5075 45.4481 35.5956 44.9756C35.6837 44.5031 35.6294 44.01 35.4906 43.5487C35.2131 42.6262 34.6187 41.8406 34.1275 41.0137C33.9325 40.6856 33.7525 40.3519 33.5594 40.0237C35.0406 38.3606 36.2331 36.4369 36.9231 34.3237C37.675 32.0175 37.8137 29.5331 37.4969 27.1275C37.18 24.7219 36.4169 22.3894 35.4137 20.1806C34.1537 17.4131 33.0944 16.4119 32.3256 13.98C31.4969 11.3512 32.1812 8.24062 31.5644 5.8575C31.345 5.0475 30.9944 4.27312 30.5425 3.56437C30.0137 2.73375 29.3425 1.99125 28.5456 1.41375C27.2744 0.49125 25.6769 0 24.0531 0V0Z" fill="#020204"/>
<path d="M19.5869 13.8749C19.4181 14.0868 19.3094 14.3418 19.2419 14.6043C19.1762 14.8668 19.1519 15.1387 19.1406 15.4106C19.12 15.9525 19.1537 16.5037 19.0094 17.0268C18.8556 17.5856 18.5125 18.0712 18.1769 18.5418C17.5937 19.3593 17.005 20.1993 16.7181 21.1612C16.5437 21.7424 16.4856 22.3593 16.5475 22.9649C15.8969 23.9212 15.3325 24.9393 14.8637 25.9987C14.155 27.6056 13.6694 29.3156 13.4987 31.0631C13.2887 33.2024 13.5625 35.4037 14.4081 37.3799C15.0175 38.8106 15.9287 40.1174 17.1044 41.1374C17.7006 41.6549 18.3644 42.0956 19.0731 42.4443C21.5312 43.6537 24.5687 43.6556 26.9856 42.3674C28.2494 41.6943 29.3162 40.7099 30.3437 39.7143C30.9625 39.1143 31.5794 38.4993 32.0519 37.7793C32.9612 36.3899 33.2781 34.7024 33.475 33.0543C33.8181 30.1743 33.8294 27.1293 32.5656 24.5174C32.1306 23.6174 31.5512 22.7887 30.8556 22.0706C30.6719 20.8143 30.3062 19.5824 29.7756 18.4293C29.3912 17.5949 28.9244 16.8018 28.5681 15.9581C28.4219 15.6112 28.2944 15.255 28.1331 14.9156C27.97 14.5762 27.7712 14.2499 27.4975 13.9893C27.22 13.7231 26.8731 13.5337 26.5075 13.4137C26.1419 13.2918 25.7556 13.2374 25.3712 13.2187C24.6006 13.1793 23.83 13.2806 23.0594 13.2487C22.4462 13.2243 21.835 13.1175 21.2219 13.1531C20.9162 13.1718 20.6106 13.2262 20.3256 13.3425C20.0406 13.4568 19.7781 13.6349 19.5869 13.8749V13.8749Z" fill="#FDFDFB"/>
<g opacity="0.25" filter="url(#filter0_f_147648_571)">
<path d="M16.8756 21.5962C17.0388 21.8418 16.7725 22.6912 20.5994 22.1475C20.5994 22.1475 19.9263 22.2206 19.2644 22.3743C18.235 22.7193 17.3388 23.1037 16.645 23.6137C15.9606 24.12 15.4581 24.7781 14.83 25.3425C14.83 25.3425 15.8481 23.4825 16.1013 22.9218C16.3563 22.3612 16.06 22.3875 16.2606 21.5625C16.4613 20.7375 16.9525 19.9443 16.9525 19.9443C16.9525 19.9443 16.5513 21.1106 16.8756 21.5962V21.5962Z" fill="url(#paint0_radial_147648_571)"/>
</g>
<g opacity="0.42" filter="url(#filter1_f_147648_571)">
<path d="M29.1775 21.3731C28.3975 21.9169 27.94 21.8531 26.995 21.9581C26.0481 22.065 23.4887 22.0256 23.4887 22.0256C23.4887 22.0256 23.8581 22.02 24.6812 22.1719C25.5025 22.3256 27.1769 22.4719 28.12 22.83C29.065 23.19 29.4081 23.2931 29.9819 23.655C30.7975 24.1706 31.3975 24.9788 32.1775 25.545C32.1775 25.545 32.215 24.795 31.9 24.2344C31.585 23.6738 30.7375 22.7906 30.4881 21.9656C30.2406 21.1406 30.1206 19.5206 30.1206 19.5206C30.1206 19.5206 29.9556 20.8313 29.1775 21.3731V21.3731Z" fill="url(#paint1_radial_147648_571)"/>
</g>
<g opacity="0.2" filter="url(#filter2_f_147648_571)">
<path d="M21.8444 20.2144C21.8144 20.4487 21.7769 20.6831 21.7319 20.9156C21.7094 21.03 21.6831 21.1444 21.6419 21.2531C21.5987 21.3619 21.5369 21.4669 21.4506 21.5437C21.3737 21.6131 21.2819 21.66 21.1881 21.7031C20.8244 21.8681 20.4362 21.9787 20.0406 22.0294C20.1981 22.0406 20.3556 22.0556 20.515 22.0725C20.6144 22.0837 20.7137 22.095 20.8094 22.1194C20.9069 22.1456 21.0025 22.1831 21.0831 22.2412C21.1712 22.3069 21.2406 22.395 21.2931 22.4925C21.3962 22.6837 21.43 22.905 21.4487 23.1244C21.4731 23.4019 21.475 23.6831 21.4544 23.9606C21.4731 23.775 21.5125 23.5894 21.5706 23.4131C21.6775 23.0906 21.8462 22.7906 22.075 22.5412C22.1669 22.4437 22.2662 22.3519 22.375 22.275C22.7106 22.0387 23.1381 21.9356 23.545 21.9919C23.1306 22.0087 22.7125 21.8794 22.3825 21.63C22.2137 21.5025 22.0675 21.345 21.9662 21.1612C21.8087 20.8762 21.7637 20.5294 21.8444 20.2144V20.2144Z" fill="url(#paint2_radial_147648_571)"/>
</g>
<g opacity="0.11" filter="url(#filter3_f_147648_571)">
<path d="M20.8469 25.7137C20.6481 26.4694 20.5112 27.2419 20.44 28.0219C20.3369 29.1225 20.3612 30.2306 20.3012 31.335C20.2525 32.2706 20.1419 33.2175 20.305 34.1419C20.3819 34.5825 20.5206 35.0119 20.7175 35.4131C20.7475 35.2594 20.7719 35.1056 20.785 34.95C20.8544 34.2 20.7287 33.4481 20.6856 32.6981C20.6106 31.3819 20.7925 30.0656 20.8675 28.7494C20.9237 27.7387 20.9181 26.7244 20.8469 25.7137V25.7137Z" fill="black"/>
</g>
<g opacity="0.75" filter="url(#filter4_f_147648_571)">
<path d="M34.015 24.6056C34.2081 24.5756 35.3912 25.5825 35.23 25.9575C35.0687 26.3306 34.7631 26.1056 34.5456 26.1075C34.3281 26.1113 33.7337 26.3813 33.6344 26.2106C33.5331 26.04 33.8969 25.6425 34.0862 25.3088C34.24 25.0406 33.8237 24.6356 34.015 24.6056V24.6056Z" fill="#7C7C7C"/>
</g>
<g filter="url(#filter5_f_147648_571)">
<path d="M26.785 2.08504C26.3706 2.37754 26.5506 2.74317 26.7287 3.10879C26.9069 3.47629 26.3369 4.53192 26.3312 4.57692C26.3256 4.62192 27.4525 4.04254 27.76 3.66379C28.1237 3.21942 29.0406 4.26754 28.99 4.10817C28.9919 3.82317 27.1994 1.79442 26.785 2.08504V2.08504Z" fill="#7C7C7C"/>
</g>
<g filter="url(#filter6_f_147648_571)">
<path d="M29.9256 14.3682C29.5769 14.6869 30.0906 15.165 30.3325 15.7257C30.4844 16.0744 30.9025 16.5675 31.3075 16.4888C31.6131 16.4288 31.8006 15.99 31.7725 15.6825C31.7162 15.0863 31.2137 14.9457 30.8481 14.7413C30.5594 14.58 30.1712 14.145 29.9256 14.3682V14.3682Z" fill="#838384"/>
</g>
<path d="M15.9963 18.9206C14.8525 20.2181 13.6769 21.4762 13.0319 22.8806C12.7113 23.5931 12.5613 24.3675 12.3419 25.1175C12.0944 25.9687 11.7569 26.7937 11.3781 27.5962C11.0275 28.3368 10.6413 29.0606 10.2569 29.7825C9.97563 30.3093 9.69063 30.8456 9.59313 31.4343C9.51626 31.8993 9.55938 32.3793 9.67938 32.835C9.79751 33.2906 9.98688 33.7256 10.2025 34.1437C11.1175 35.9343 12.4919 37.4756 14.1194 38.6568C14.8581 39.1912 15.6475 39.6543 16.4781 40.035C16.9281 40.2393 17.4006 40.4231 17.8956 40.4306C18.1431 40.4362 18.3925 40.395 18.6194 40.2956C18.8444 40.1962 19.0469 40.0368 19.1819 39.8287C19.3469 39.5737 19.4031 39.2568 19.3694 38.955C19.3356 38.6531 19.2175 38.3643 19.06 38.1056C18.6738 37.4718 18.0644 37.0125 17.4775 36.5587C16.21 35.5781 14.9856 34.5412 13.8119 33.45C13.4819 33.1406 13.15 32.8237 12.9194 32.4337C12.6944 32.055 12.5725 31.6237 12.49 31.1906C12.2631 30.0037 12.3213 28.755 12.7244 27.615C12.8838 27.1687 13.0919 26.7431 13.2944 26.3156C13.6431 25.575 13.9731 24.8193 14.4325 24.1406C15.0044 23.295 15.7694 22.5787 16.2344 21.6712C16.6281 20.9043 16.7875 20.0437 16.9394 19.1962C17.0594 18.5325 17.2863 17.8837 17.4025 17.22C17.1756 17.6512 16.4444 18.3581 15.9963 18.9206V18.9206Z" fill="#020204"/>
<g opacity="0.95" filter="url(#filter7_f_147648_571)">
<path d="M14.68 23.6438C14.305 23.9888 13.9806 24.3881 13.7181 24.8269C13.2869 25.5469 13.0338 26.3569 12.7188 27.135C12.4863 27.7144 12.2144 28.2975 12.1825 28.9219C12.1656 29.2425 12.2125 29.5631 12.2238 29.8838C12.235 30.2044 12.205 30.5381 12.0475 30.8175C11.9163 31.0519 11.6969 31.2356 11.4438 31.3256C11.7869 31.44 12.0906 31.6613 12.3063 31.95C12.4863 32.1938 12.6025 32.4769 12.7581 32.7338C12.8856 32.9438 13.0413 33.1388 13.2344 33.2906C13.4256 33.4444 13.6563 33.5531 13.8981 33.5831C14.2338 33.6263 14.5825 33.5156 14.83 33.2869C14.5188 30.3713 14.8038 27.3956 15.6625 24.5925C15.7169 24.4163 15.7731 24.2381 15.7881 24.0544C15.8013 23.8688 15.7656 23.6738 15.6531 23.5275C15.595 23.4488 15.5144 23.3869 15.4225 23.3475C15.3325 23.31 15.2313 23.295 15.1338 23.3081C15.0363 23.3194 14.9406 23.3569 14.8619 23.415C14.7831 23.475 14.7194 23.5538 14.68 23.6438V23.6438Z" fill="#7C7C7C"/>
</g>
<path d="M34.5175 23.835C35.5 24.6263 36.1244 25.8206 36.3175 27.0675C36.4675 28.0388 36.37 29.0381 36.1506 29.9963C35.9313 30.9563 35.5938 31.8825 35.2563 32.8088C35.1231 33.1763 34.9881 33.5494 34.9356 33.9375C34.8813 34.3275 34.915 34.7381 35.1025 35.0831C35.3181 35.4788 35.7194 35.7506 36.1506 35.8781C36.5763 36.0056 37.0356 36.0019 37.4669 35.895C37.8981 35.7881 38.6238 35.6494 38.9744 35.3756C39.865 34.6838 40.0769 33.4819 40.2888 32.4281C40.5081 31.3275 40.4013 30.1744 40.2081 29.0625C39.9438 27.5456 39.4994 26.0644 38.935 24.6338C38.5188 23.58 37.9863 22.575 37.3525 21.6413C36.73 20.7244 35.8488 20.01 35.1963 19.1138C34.9694 18.8025 34.6975 18.48 34.4763 18.165C33.9963 17.4863 34.105 17.6138 33.8069 17.1731C33.5913 16.8544 33.25 16.7456 32.8919 16.6069C32.5319 16.4681 32.1306 16.4269 31.7594 16.53C31.2719 16.6669 30.8725 17.0531 30.6606 17.5125C30.4488 17.9738 30.4113 18.5025 30.4938 19.0031C30.6006 19.6481 30.895 20.2481 31.2288 20.8106C31.6038 21.4463 32.0388 22.0594 32.6069 22.5319C33.1994 23.025 33.9156 23.3513 34.5175 23.835V23.835Z" fill="#020204"/>
<g filter="url(#filter8_f_147648_571)">
<path d="M32.2038 22.3107C32.2825 22.3857 32.365 22.4625 32.4494 22.5338C33.0531 23.0269 33.3737 23.58 33.9869 24.0638C34.9881 24.855 36.0025 26.22 36.1994 27.4669C36.3531 28.44 36.1506 28.9688 35.9031 30.1144C35.6556 31.2619 34.9544 32.8857 34.5738 33.9919C34.4238 34.4325 34.8813 34.2507 34.8213 34.7157C34.7913 34.9444 34.7875 35.175 34.8156 35.4038C34.8194 35.3607 34.8213 35.3138 34.8269 35.2707C34.9 34.6369 35.0931 34.0275 35.305 33.4294C35.7119 32.28 36.1787 31.1513 36.5012 29.97C36.8237 28.7907 36.7881 27.9413 36.6194 26.9269C36.4075 25.65 35.665 24.4725 34.615 23.6944C33.8706 23.145 32.995 22.7925 32.2038 22.3107V22.3107Z" fill="#838384"/>
</g>
<path d="M10.5587 32.8745C10.8175 32.7676 11.1081 32.747 11.3819 32.7976C11.6575 32.8482 11.9181 32.9682 12.1487 33.1238C12.6119 33.4388 12.955 33.8963 13.2831 34.3501C14.0387 35.3888 14.7644 36.4501 15.4244 37.5526C15.9588 38.4488 16.4481 39.3732 17.0669 40.2113C17.47 40.7607 17.9237 41.2688 18.3287 41.8145C18.7337 42.362 19.0919 42.9545 19.2719 43.6107C19.5062 44.4638 19.4144 45.4032 19.0094 46.1888C18.7244 46.742 18.2856 47.2163 17.7531 47.537C17.2206 47.8576 16.66 48.0001 16.0375 48.0001C15.0494 48.0001 14.0838 47.4695 13.165 47.1038C11.2938 46.3576 9.26125 46.1251 7.33188 45.5438C6.73938 45.3657 6.15625 45.1538 5.56 44.9907C5.29375 44.9176 5.02563 44.8538 4.77438 44.7395C4.52313 44.627 4.28875 44.4563 4.15 44.2201C4.04313 44.0363 4 43.8207 4 43.6088C4 43.3951 4.0525 43.1851 4.12563 42.9863C4.27 42.587 4.50437 42.2251 4.66187 41.8295C4.91875 41.1845 4.96563 40.4738 4.93 39.7801C4.89625 39.0882 4.78375 38.4001 4.73688 37.7082C4.71438 37.3988 4.70688 37.0857 4.76688 36.7801C4.825 36.4763 4.95625 36.1782 5.17937 35.9645C5.38562 35.7657 5.6575 35.6476 5.93875 35.5895C6.21813 35.5313 6.50688 35.5295 6.79188 35.5351C7.07688 35.5407 7.36375 35.5576 7.64875 35.5332C7.93375 35.5107 8.22062 35.447 8.46812 35.3045C8.70437 35.1695 8.8975 34.9688 9.05687 34.7495C9.21625 34.5301 9.34562 34.2901 9.47875 34.052C9.61 33.8157 9.74687 33.5795 9.92125 33.3695C10.0937 33.1595 10.3075 32.9776 10.5587 32.8745V32.8745Z" fill="url(#paint3_linear_147648_571)"/>
<g filter="url(#filter9_f_147648_571)">
<path d="M10.9675 33.3189C11.2019 33.2251 11.4681 33.2139 11.7138 33.2701C11.9613 33.3264 12.1919 33.4464 12.3906 33.602C12.7919 33.9114 13.0694 34.3464 13.3375 34.7757C13.9788 35.8145 14.605 36.8664 15.1975 37.937C15.6475 38.7451 16.075 39.5682 16.6263 40.3089C16.9919 40.8001 17.41 41.252 17.7831 41.7376C18.1563 42.2232 18.4881 42.752 18.6531 43.3426C18.8669 44.102 18.7806 44.9439 18.4131 45.6414C18.1469 46.1439 17.7419 46.5713 17.2506 46.8563C16.7613 47.1413 16.1875 47.2838 15.6213 47.2576C14.7175 47.2163 13.8906 46.7645 13.0394 46.4589C11.4063 45.8664 9.63813 45.7857 7.96188 45.3245C7.36188 45.1614 6.77688 44.9439 6.17501 44.792C5.90688 44.7245 5.63501 44.6682 5.38188 44.5614C5.12876 44.4545 4.89063 44.2895 4.75188 44.0514C4.65063 43.8732 4.60938 43.6651 4.61501 43.4607C4.62251 43.2563 4.67313 43.0539 4.74626 42.8626C4.89251 42.4801 5.12126 42.1351 5.26751 41.7526C5.49063 41.1751 5.51876 40.5395 5.47751 39.9226C5.43626 39.3057 5.32751 38.6926 5.29001 38.0757C5.27501 37.7982 5.27126 37.5189 5.32751 37.2489C5.38376 36.977 5.50188 36.7145 5.69876 36.5195C5.91251 36.3076 6.20501 36.1932 6.50313 36.1464C6.79938 36.1014 7.10126 36.122 7.39938 36.1482C7.69938 36.1745 7.99938 36.2082 8.29938 36.1914C8.59938 36.1726 8.90313 36.0995 9.15063 35.9307C9.37563 35.7789 9.54438 35.5557 9.67376 35.3176C9.80313 35.0795 9.89501 34.8226 9.99438 34.5714C10.0919 34.3182 10.1988 34.067 10.3525 33.842C10.5063 33.6189 10.7144 33.422 10.9675 33.3189V33.3189Z" fill="#D99A03"/>
</g>
<g filter="url(#filter10_f_147648_571)">
<path d="M10.7481 32.7319C10.9769 32.6194 11.245 32.5969 11.4944 32.6476C11.7437 32.6982 11.9762 32.8201 12.1731 32.9794C12.565 33.2982 12.8162 33.7538 13.0487 34.2001C13.5812 35.2238 14.08 36.2701 14.7175 37.2357C15.1825 37.9351 15.7169 38.5857 16.1856 39.2832C16.8212 40.2263 17.3387 41.2651 17.5525 42.3769C17.695 43.1269 17.6912 43.9351 17.3312 44.6082C17.0931 45.0526 16.7087 45.4163 16.2531 45.6432C15.7994 45.8719 15.2762 45.9638 14.7681 45.9188C13.9675 45.8494 13.2419 45.4557 12.4881 45.1801C11.1512 44.6945 9.70562 44.5763 8.32937 44.2088C7.75 44.0551 7.18 43.8544 6.59312 43.7326C6.3325 43.6782 6.06812 43.6388 5.82062 43.5451C5.57312 43.4513 5.33875 43.2957 5.21125 43.0669C5.12312 42.9057 5.09312 42.7182 5.10625 42.5345C5.11937 42.3526 5.17375 42.1744 5.245 42.0038C5.38937 41.6663 5.60125 41.3551 5.71187 41.0063C5.87687 40.4907 5.80937 39.9338 5.68562 39.4069C5.56375 38.8819 5.38562 38.3663 5.33125 37.8301C5.30687 37.5919 5.30687 37.3482 5.36312 37.1138C5.4175 36.8794 5.52812 36.6544 5.7025 36.4876C5.9275 36.2719 6.2425 36.1632 6.5575 36.1332C6.87062 36.1032 7.18562 36.1444 7.49687 36.1894C7.80812 36.2344 8.12312 36.2832 8.43625 36.2682C8.75125 36.2551 9.07187 36.1726 9.3175 35.9794C9.56125 35.7882 9.715 35.5051 9.80312 35.2126C9.89125 34.9182 9.91937 34.6126 9.955 34.3088C9.99062 34.0051 10.0356 33.6976 10.1537 33.4144C10.2719 33.1313 10.4706 32.8707 10.7481 32.7319V32.7319Z" fill="#F5BD0C"/>
</g>
<g filter="url(#filter11_f_147648_571)">
<path d="M13.6 35.2894C14.0219 36.0507 14.2788 36.9244 14.6969 37.6932C15.0813 38.4001 15.5181 39.1276 15.9081 39.7782C16.0825 40.0688 16.4875 40.5151 16.8963 41.2069C17.2675 41.8332 17.6425 42.7088 17.8525 43.0032C17.7325 42.6582 17.485 41.7338 17.1888 41.0757C16.9131 40.4607 16.5906 40.1101 16.3938 39.7782C16.0038 39.1276 15.5819 38.5407 15.1806 37.9201C14.6275 37.0632 14.2056 36.1051 13.6 35.2894V35.2894Z" fill="url(#paint4_linear_147648_571)"/>
</g>
<g opacity="0.2" filter="url(#filter12_f_147648_571)">
<path d="M41.2563 40.4268C41.1813 40.6762 41.065 40.918 40.9169 41.1393C40.5888 41.6249 40.1106 41.9924 39.6344 42.3299C38.8225 42.9055 37.975 43.4343 37.2175 44.0887C36.7113 44.5274 36.2481 45.0205 35.8206 45.538C35.455 45.9805 35.11 46.4455 34.6919 46.8393C34.27 47.2368 33.775 47.5593 33.2406 47.7337C32.59 47.9455 31.9038 47.9362 31.2775 47.7749C30.8388 47.6624 30.4094 47.4674 30.1375 47.113C29.8656 46.7587 29.7775 46.2805 29.7456 45.8118C29.6894 44.983 29.7888 44.1374 29.8788 43.2955C29.9538 42.5962 30.0231 41.8968 30.0513 41.1993C30.1019 39.9299 30.0175 38.6737 29.8469 37.4399C29.8169 37.2318 29.7869 37.0237 29.8038 36.8118C29.8206 36.598 29.8919 36.3768 30.0419 36.2118C30.1806 36.0599 30.3738 35.9699 30.565 35.9268C30.7563 35.8818 30.9513 35.8799 31.1444 35.8743C31.6 35.863 32.0556 35.8349 32.5038 35.8762C32.7869 35.9005 33.0644 35.953 33.3456 35.9793C33.8163 36.0243 34.3056 36.0018 34.7781 35.863C35.2863 35.713 35.77 35.4337 36.2875 35.3568C36.4994 35.3249 36.7113 35.3287 36.9175 35.3587C37.1275 35.3868 37.3375 35.4449 37.4988 35.5743C37.6225 35.6718 37.7125 35.8049 37.7819 35.9474C37.8869 36.1612 37.9506 36.3955 37.9881 36.6374C38.02 36.8512 38.0331 37.0705 38.0875 37.2768C38.1775 37.6162 38.3838 37.9049 38.6294 38.1393C38.8769 38.3737 39.1638 38.5593 39.4525 38.743C39.7394 38.9249 40.0281 39.1049 40.3338 39.2549C40.4781 39.3262 40.6263 39.3899 40.7631 39.4705C40.9019 39.553 41.0294 39.6524 41.1213 39.7837C41.245 39.9618 41.2938 40.1962 41.2563 40.4268V40.4268Z" fill="url(#paint5_linear_147648_571)"/>
</g>
<path d="M44.0256 41.7974C43.6019 42.2999 43.0131 42.6318 42.4263 42.9318C41.4269 43.4399 40.39 43.8881 39.4506 44.5012C38.8206 44.9118 38.2394 45.3937 37.6956 45.9131C37.2306 46.3574 36.79 46.8318 36.2688 47.2087C35.7419 47.5893 35.1344 47.8649 34.4913 47.9606C34.3131 47.9868 34.135 47.9999 33.955 47.9999C33.3475 47.9999 32.74 47.8537 32.1813 47.6099C31.675 47.3906 31.1875 47.0737 30.895 46.6049C30.6025 46.1324 30.535 45.5568 30.535 44.9999C30.5331 44.0193 30.715 43.0481 30.8856 42.0806C31.0281 41.2762 31.1631 40.4718 31.2513 39.6599C31.4106 38.1862 31.4088 36.6956 31.3038 35.2143C31.285 34.9668 31.2644 34.7174 31.3019 34.4718C31.3394 34.2262 31.4406 33.9806 31.6281 33.8193C31.8025 33.6693 32.035 33.6018 32.2656 33.5906C32.4944 33.5774 32.7231 33.6131 32.95 33.6468C33.4844 33.7256 34.0244 33.7856 34.5475 33.9243C34.8775 34.0106 35.2 34.1268 35.5281 34.2168C36.0794 34.3649 36.655 34.4362 37.2194 34.3706C37.8288 34.2993 38.4213 34.0706 39.0344 34.0856C39.2856 34.0912 39.535 34.1381 39.775 34.2149C40.0188 34.2918 40.2606 34.4024 40.4406 34.5862C40.5775 34.7249 40.6731 34.8993 40.7444 35.0812C40.8513 35.3512 40.9094 35.6399 40.9338 35.9287C40.9544 36.1856 40.9506 36.4462 40.9994 36.6993C41.08 37.1137 41.2994 37.4943 41.5694 37.8187C41.8413 38.1449 42.1656 38.4206 42.49 38.6924C42.8144 38.9643 43.1388 39.2343 43.4875 39.4724C43.6506 39.5849 43.8194 39.6899 43.975 39.8118C44.1306 39.9356 44.2731 40.0781 44.3706 40.2506C44.455 40.4024 44.5 40.5731 44.5 40.7474C44.5 40.8449 44.4869 40.9424 44.4569 41.0399C44.3725 41.3081 44.2169 41.5687 44.0256 41.7974V41.7974Z" fill="url(#paint6_linear_147648_571)"/>
<g filter="url(#filter13_f_147648_571)">
<path d="M43.9769 40.5226C43.8775 40.772 43.7369 41.0063 43.5606 41.2107C43.1725 41.6645 42.6362 41.9626 42.1019 42.2307C41.1869 42.6882 40.2419 43.0895 39.3831 43.6407C38.8094 44.0101 38.2769 44.4432 37.78 44.912C37.3562 45.3113 36.9531 45.7388 36.4769 46.0763C35.995 46.4195 35.44 46.6651 34.855 46.7513C34.1425 46.8563 33.4075 46.7213 32.7456 46.4382C32.2844 46.2395 31.8381 45.9582 31.57 45.5326C31.3037 45.1088 31.2419 44.5913 31.2419 44.0907C31.2381 43.2076 31.405 42.3338 31.5625 41.4657C31.6937 40.7438 31.8175 40.0201 31.8962 39.2907C32.0387 37.9632 32.0331 36.6245 31.9431 35.2932C31.9281 35.0701 31.9112 34.8451 31.945 34.6238C31.9787 34.4026 32.0706 34.1832 32.2394 34.037C32.3987 33.9001 32.6125 33.8401 32.8225 33.8307C33.0306 33.8195 33.2387 33.8532 33.4469 33.8832C33.9362 33.9545 34.4275 34.0088 34.9056 34.1326C35.2075 34.2113 35.5019 34.3163 35.8019 34.3951C36.3044 34.5301 36.8312 34.5938 37.3469 34.5338C37.9037 34.4701 38.4437 34.2638 39.0025 34.277C39.2331 34.2826 39.46 34.3257 39.6794 34.3932C39.9025 34.4626 40.1237 34.562 40.2887 34.727C40.4125 34.8526 40.4969 35.0101 40.5662 35.1732C40.6656 35.4151 40.7331 35.6738 40.7369 35.9363C40.7425 36.2101 40.6844 36.4838 40.72 36.7557C40.75 36.9751 40.8437 37.1832 40.9637 37.3707C41.0819 37.5582 41.2262 37.7288 41.3706 37.8976C41.6481 38.2257 41.9256 38.5595 42.2744 38.8107C42.67 39.0976 43.1406 39.2663 43.5494 39.5326C43.6712 39.6132 43.7894 39.7032 43.8756 39.8213C44.0219 40.0201 44.0594 40.2901 43.9769 40.5226V40.5226Z" fill="#CD8907"/>
</g>
<g filter="url(#filter14_f_147648_571)">
<path d="M43.9206 40.2394C43.8081 40.4925 43.6637 40.7269 43.4931 40.935C43.0956 41.4187 42.5575 41.7506 41.9931 41.9644C41.0612 42.3169 40.045 42.3637 39.1319 42.765C38.575 43.0087 38.0725 43.3762 37.5644 43.725C37.1556 44.0044 36.7356 44.2762 36.2856 44.4712C35.7756 44.6944 35.2356 44.8181 34.6919 44.9062C34.3469 44.9606 33.9962 45.0019 33.6475 44.9831C33.2987 44.9644 32.95 44.8819 32.6406 44.7037C32.4081 44.5687 32.1981 44.3756 32.0725 44.1225C31.9356 43.8431 31.9112 43.515 31.9131 43.1962C31.9225 42.3525 32.1044 41.5162 32.0987 40.6706C32.0931 39.9337 31.9469 39.2081 31.9056 38.4731C31.825 37.0594 32.1287 35.6231 31.8606 34.2375C31.8194 34.0144 31.7612 33.7931 31.7631 33.5662C31.765 33.4537 31.7819 33.3394 31.8212 33.2344C31.8625 33.1312 31.9262 33.0356 32.0106 32.9681C32.0837 32.9137 32.1681 32.88 32.2562 32.8631C32.3425 32.8481 32.4325 32.8519 32.5206 32.865C32.695 32.8931 32.8619 32.9606 33.0325 33.0112C33.52 33.1575 34.0356 33.1537 34.5325 33.2644C34.8437 33.3319 35.1437 33.4462 35.4531 33.5287C35.9687 33.6712 36.5087 33.7312 37.0394 33.6694C37.6094 33.6019 38.1662 33.3956 38.74 33.4106C38.9762 33.4162 39.2087 33.4594 39.4356 33.5269C39.6625 33.5944 39.8894 33.69 40.0619 33.8644C40.1837 33.99 40.2737 34.1494 40.345 34.3144C40.4519 34.5562 40.525 34.8187 40.5231 35.085C40.5212 35.2237 40.5006 35.3606 40.4875 35.4994C40.4762 35.6381 40.4725 35.7787 40.5044 35.9119C40.5381 36.0469 40.6075 36.1687 40.6862 36.2794C40.765 36.39 40.855 36.4894 40.9375 36.5981C41.1662 36.9 41.3312 37.2525 41.5094 37.5919C41.6875 37.9312 41.8881 38.2669 42.1712 38.5125C42.5556 38.8444 43.0525 38.9775 43.4819 39.2419C43.6075 39.3187 43.7275 39.4087 43.8156 39.5325C43.8869 39.63 43.9337 39.7481 43.9525 39.8719C43.9694 39.9937 43.9581 40.1231 43.9206 40.2394V40.2394Z" fill="#F5C021"/>
</g>
<g filter="url(#filter15_f_147648_571)">
<path d="M31.765 34.0463C32.2937 33.9038 32.7437 34.305 33.1281 34.6069C33.3756 34.8188 33.7356 34.7663 34.0394 34.7757C34.5437 34.7588 35.0444 34.86 35.5487 34.7982C36.5425 34.7138 37.5156 34.47 38.5131 34.4288C38.9894 34.3988 39.5256 34.3707 39.9362 34.6482C40.1031 34.7644 40.3487 35.2538 40.5119 35.07C40.4444 34.5563 40.0637 34.0594 39.5537 33.9225C39.1525 33.8588 38.7475 33.9694 38.3425 33.9338C37.1444 33.9057 35.9519 33.6825 34.75 33.7463C33.9137 33.7538 33.0794 33.7144 32.2431 33.6825C31.915 33.615 31.7987 33.9057 31.6206 34.0182C31.6675 34.0538 31.6844 34.065 31.765 34.0463V34.0463Z" fill="url(#paint7_linear_147648_571)"/>
</g>
<g opacity="0.35" filter="url(#filter16_f_147648_571)">
<path d="M38.7794 35.1769C38.6894 34.9987 38.5244 34.8656 38.3387 34.7887C38.155 34.7119 37.9525 34.6856 37.7519 34.6875C37.3525 34.6912 36.955 34.7944 36.5556 34.7606C36.22 34.7306 35.9012 34.605 35.5731 34.5244C35.2337 34.4419 34.8737 34.41 34.5381 34.5019C34.1781 34.5994 33.8612 34.8412 33.6625 35.1562C33.4862 35.4337 33.4037 35.7619 33.3775 36.09C33.3512 36.4181 33.3794 36.7462 33.4131 37.0744C33.4356 37.3106 33.4637 37.5469 33.52 37.7775C33.5781 38.0081 33.6662 38.2331 33.805 38.4262C34.0056 38.7037 34.3037 38.9025 34.6244 39.0206C35.1494 39.2137 35.7456 39.2044 36.2612 38.9925C37.1762 38.595 37.9506 37.8825 38.4212 37.005C38.5919 36.69 38.7231 36.3544 38.8075 36.0094C38.8412 35.8706 38.8675 35.73 38.8675 35.5875C38.8694 35.4469 38.845 35.3025 38.7794 35.1769Z" fill="url(#paint8_radial_147648_571)"/>
</g>
<g opacity="0.35" filter="url(#filter17_f_147648_571)">
<path d="M38.7794 34.6669C38.6894 34.5375 38.5244 34.4419 38.3387 34.3856C38.155 34.3294 37.9525 34.3125 37.7519 34.3125C37.3525 34.3163 36.955 34.3913 36.5556 34.365C36.22 34.3444 35.9012 34.2525 35.5731 34.1963C35.2337 34.1363 34.8737 34.1119 34.5381 34.1794C34.1781 34.2488 33.8612 34.4231 33.6625 34.6519C33.4862 34.8525 33.4037 35.0906 33.3775 35.3269C33.3512 35.5631 33.3794 35.8013 33.4131 36.0375C33.4356 36.2081 33.4637 36.3806 33.52 36.5475C33.5781 36.7144 33.6662 36.8775 33.805 37.0163C34.0056 37.2169 34.3037 37.3594 34.6244 37.4456C35.1494 37.5863 35.7456 37.5788 36.2612 37.425C37.1762 37.1381 37.9506 36.6225 38.4212 35.9888C38.5919 35.76 38.7231 35.5181 38.8075 35.2688C38.8412 35.1675 38.8675 35.0663 38.8675 34.965C38.8694 34.8619 38.845 34.7569 38.7794 34.6669V34.6669Z" fill="url(#paint9_radial_147648_571)"/>
</g>
<path d="M39.5406 33.5099C39.475 33.3318 39.3587 33.1743 39.2181 33.0468C39.0775 32.9193 38.9106 32.8218 38.7362 32.7468C38.3875 32.5987 38.0069 32.5424 37.6319 32.473C37.2812 32.4074 36.9306 32.3268 36.5781 32.2668C36.2106 32.2049 35.8319 32.1637 35.4681 32.2462C35.1512 32.3174 34.8569 32.4824 34.6169 32.7018C34.3769 32.9212 34.1894 33.1949 34.0544 33.4912C33.8162 34.0143 33.7412 34.6012 33.7862 35.173C33.82 35.5987 33.9287 36.0374 34.2081 36.358C34.435 36.6187 34.7556 36.7818 35.0856 36.8793C35.6556 37.048 36.2762 37.0387 36.8406 36.8549C37.7725 36.5418 38.5975 35.9212 39.1562 35.113C39.34 34.8449 39.4975 34.5543 39.5687 34.2393C39.6231 33.9993 39.625 33.7405 39.5406 33.5099V33.5099Z" fill="#020204"/>
<g filter="url(#filter18_f_147648_571)">
<path d="M35.6669 32.0755C35.5787 32.0812 35.4925 32.0905 35.4044 32.1074C34.8437 32.2068 34.33 32.5612 34.0412 33.0505C33.8369 33.3974 33.745 33.8062 33.7731 34.2074C33.7862 33.9262 33.8594 33.6505 33.9962 33.4049C34.2269 32.9868 34.6469 32.6718 35.1175 32.5855C35.4062 32.533 35.7044 32.5649 35.995 32.6005C36.2762 32.6362 36.5575 32.6737 36.8331 32.7318C37.2606 32.8255 37.6825 32.968 38.0406 33.2174C38.1231 33.2755 38.2019 33.3412 38.2675 33.4199C38.3331 33.4968 38.3837 33.5868 38.4044 33.6862C38.4325 33.8324 38.3912 33.9862 38.3181 34.1155C38.245 34.2468 38.1456 34.3593 38.0406 34.4643C37.9544 34.5505 37.8644 34.6312 37.7725 34.7118C38.1869 34.6312 38.605 34.5187 38.95 34.2787C39.0944 34.1755 39.2275 34.0537 39.3137 33.8999C39.4 33.7443 39.4356 33.5568 39.3944 33.3843C39.3644 33.268 39.3006 33.1612 39.2219 33.0712C39.1431 32.9812 39.0475 32.908 38.95 32.8387C38.5169 32.5349 38.0106 32.3418 37.4856 32.278C37.1481 32.2162 36.8087 32.1637 36.4694 32.1224C36.205 32.0887 35.9331 32.0605 35.6669 32.0755V32.0755Z" fill="url(#paint10_radial_147648_571)"/>
</g>
<g filter="url(#filter19_f_147648_571)">
<path d="M35.6669 32.0755C35.5787 32.0812 35.4925 32.0905 35.4044 32.1074C34.8437 32.2068 34.33 32.5612 34.0412 33.0505C33.8369 33.3974 33.745 33.8062 33.7731 34.2074C33.7862 33.9262 33.8594 33.6505 33.9962 33.4049C34.2269 32.9868 34.6469 32.6718 35.1175 32.5855C35.4062 32.533 35.7044 32.5649 35.995 32.6005C36.2762 32.6362 36.5575 32.6737 36.8331 32.7318C37.2606 32.8255 37.6825 32.968 38.0406 33.2174C38.1231 33.2755 38.2019 33.3412 38.2675 33.4199C38.3331 33.4968 38.3837 33.5868 38.4044 33.6862C38.4325 33.8324 38.3912 33.9862 38.3181 34.1155C38.245 34.2468 38.1456 34.3593 38.0406 34.4643C37.9544 34.5505 37.8644 34.6312 37.7725 34.7118C38.1869 34.6312 38.605 34.5187 38.95 34.2787C39.0944 34.1755 39.2275 34.0537 39.3137 33.8999C39.4 33.7443 39.4356 33.5568 39.3944 33.3843C39.3644 33.268 39.3006 33.1612 39.2219 33.0712C39.1431 32.9812 39.0475 32.908 38.95 32.8387C38.5169 32.5349 38.0106 32.3418 37.4856 32.278C37.1481 32.2162 36.8087 32.1637 36.4694 32.1224C36.205 32.0887 35.9331 32.0605 35.6669 32.0755V32.0755Z" fill="url(#paint11_linear_147648_571)"/>
</g>
<path d="M19.8344 7.17749C19.5475 7.19249 19.2719 7.32561 19.0619 7.52249C18.85 7.71936 18.7019 7.97811 18.61 8.24999C18.4281 8.79749 18.4694 9.38999 18.5106 9.96561C18.5481 10.485 18.5875 11.0156 18.7825 11.4994C18.88 11.7431 19.0169 11.97 19.1987 12.1575C19.3806 12.3431 19.6112 12.4875 19.8644 12.5494C20.1006 12.6094 20.3556 12.5981 20.5881 12.525C20.8225 12.45 21.0344 12.3169 21.2106 12.1462C21.4656 11.8969 21.6362 11.5706 21.7356 11.2275C21.835 10.8844 21.8631 10.5244 21.8575 10.1662C21.85 9.71999 21.7919 9.27186 21.6531 8.84811C21.5125 8.42436 21.2894 8.02311 20.9781 7.70249C20.8281 7.54686 20.6556 7.41186 20.4625 7.31624C20.2675 7.22061 20.05 7.16624 19.8344 7.17749V7.17749Z" fill="url(#paint12_radial_147648_571)"/>
<path d="M19.1406 9.56058C19.0806 9.92433 19.0788 10.305 19.2025 10.65C19.285 10.8787 19.4219 11.0868 19.5869 11.265C19.6938 11.3812 19.8175 11.4862 19.96 11.5556C20.1044 11.625 20.2694 11.6531 20.425 11.6156C20.5675 11.58 20.6913 11.4881 20.7831 11.3737C20.875 11.2593 20.9369 11.1225 20.98 10.9818C21.1094 10.5675 21.0888 10.1156 20.9594 9.7012C20.8675 9.39933 20.7119 9.1087 20.4719 8.9062C20.3556 8.8087 20.2206 8.73183 20.0744 8.69808C19.9281 8.66245 19.7688 8.67183 19.6319 8.7337C19.48 8.80308 19.3619 8.93433 19.285 9.08245C19.2081 9.23058 19.1688 9.39558 19.1406 9.56058Z" fill="#020204"/>
<g filter="url(#filter20_f_147648_571)">
<path d="M19.9075 9.2982C19.9469 9.40132 20.0781 9.43882 20.1513 9.52132C20.2206 9.60007 20.2938 9.68445 20.3331 9.78382C20.4063 9.9732 20.26 10.2544 20.4138 10.3894C20.4606 10.4307 20.5581 10.4326 20.605 10.3894C20.7906 10.2207 20.7494 9.88132 20.6763 9.64132C20.6088 9.4257 20.4456 9.21945 20.2431 9.11632C20.1494 9.06757 20.0088 9.0282 19.9281 9.0957C19.8775 9.1407 19.8831 9.23445 19.9075 9.2982V9.2982Z" fill="url(#paint13_linear_147648_571)"/>
</g>
<path d="M19.2137 8.33628C19.6487 8.07753 20.1756 8.01753 20.68 8.0644C21.1825 8.11315 21.6681 8.2594 22.1556 8.39253C22.5137 8.49003 22.8756 8.58003 23.2112 8.73753C23.545 8.89503 23.8562 9.12753 24.0419 9.45003C24.0719 9.50065 24.0962 9.55503 24.1281 9.60565C24.16 9.65628 24.1975 9.70315 24.2444 9.73878C24.2912 9.7744 24.3512 9.79878 24.4094 9.79503C24.4394 9.79315 24.4694 9.78565 24.4937 9.77065C24.52 9.75565 24.5425 9.73315 24.5556 9.7069C24.5706 9.6769 24.5762 9.64128 24.5744 9.60753C24.5725 9.57378 24.565 9.54003 24.5556 9.50628C24.4337 9.0619 24.145 8.68503 23.9275 8.27815C23.7962 8.0344 23.6875 7.7794 23.5562 7.53565C23.1006 6.70128 22.3525 6.0469 21.5031 5.62128C20.6537 5.19565 19.705 4.99128 18.7562 4.9369C17.6575 4.87128 16.5569 5.00253 15.4731 5.19378C15.0025 5.27628 14.5244 5.37378 14.11 5.60815C13.9019 5.7244 13.7106 5.8744 13.5625 6.0619C13.4125 6.24753 13.3075 6.47065 13.2719 6.7069C13.24 6.93565 13.2737 7.17003 13.3544 7.38565C13.4331 7.60128 13.5569 7.79815 13.7031 7.97628C13.9919 8.3344 14.365 8.6119 14.7081 8.9194C15.0512 9.22503 15.3681 9.5644 15.7525 9.81753C15.9437 9.94503 16.1519 10.05 16.3731 10.1119C16.5944 10.1738 16.8306 10.1907 17.0556 10.1438C17.2881 10.0969 17.5056 9.98253 17.695 9.83628C17.8844 9.6919 18.0475 9.51753 18.2031 9.33753C18.5144 8.97565 18.805 8.58003 19.2137 8.33628V8.33628Z" fill="url(#paint14_radial_147648_571)"/>
<g filter="url(#filter21_f_147648_571)">
<path d="M21.0194 6.85693C21.4244 7.23568 21.7244 7.70443 21.9287 8.19943C21.8387 7.65381 21.6981 7.21318 21.3419 6.85693C21.1244 6.65256 20.875 6.47256 20.5956 6.34693C20.3481 6.23631 20.0762 6.16693 19.9187 6.16506C19.7631 6.16131 19.7256 6.16506 19.6937 6.16693C19.66 6.16881 19.6356 6.16881 19.7369 6.18193C19.8381 6.19318 20.065 6.25506 20.3087 6.36381C20.5525 6.47256 20.8 6.65256 21.0194 6.85693V6.85693Z" fill="url(#paint15_linear_147648_571)"/>
</g>
<path d="M24.9269 7.17746C24.4787 7.48684 24.1019 7.91621 23.9181 8.42996C23.6856 9.07684 23.7737 9.80059 23.9987 10.4493C24.2275 11.115 24.6119 11.7487 25.1912 12.1481C25.48 12.3487 25.8156 12.4856 26.1644 12.5268C26.515 12.5681 26.8769 12.51 27.19 12.3487C27.5687 12.15 27.8594 11.8031 28.0394 11.415C28.2194 11.025 28.2962 10.5956 28.3206 10.1662C28.3506 9.62246 28.2981 9.06746 28.1181 8.55184C27.9231 7.99121 27.5706 7.47371 27.0719 7.15121C26.8244 6.98996 26.5412 6.87934 26.2469 6.83809C25.9525 6.79684 25.6487 6.82871 25.3712 6.93559C25.2137 6.99746 25.0675 7.08184 24.9269 7.17746V7.17746Z" fill="url(#paint16_radial_147648_571)"/>
<path d="M25.9637 8.53504C25.795 8.54629 25.63 8.60442 25.4856 8.69442C25.3431 8.78442 25.2212 8.90629 25.1256 9.04692C24.9325 9.32629 24.8481 9.66754 24.835 10.0069C24.8256 10.26 24.8537 10.5169 24.9381 10.7569C25.0225 10.9969 25.1631 11.22 25.36 11.3813C25.5606 11.5482 25.8137 11.6475 26.0744 11.6607C26.335 11.6719 26.5975 11.5969 26.8112 11.4488C26.9819 11.3307 27.1187 11.1675 27.2162 10.9838C27.3137 10.8019 27.3737 10.5994 27.4 10.3932C27.4469 10.0313 27.3944 9.65254 27.2256 9.32629C27.0587 9.00004 26.7737 8.73192 26.4306 8.60629C26.2806 8.55192 26.1212 8.52379 25.9637 8.53504V8.53504Z" fill="#020204"/>
<g filter="url(#filter22_f_147648_571)">
<path d="M27.0081 10.005C27.1956 9.81748 26.875 9.3206 26.6237 9.11623C26.4419 8.96998 25.915 8.81435 25.9375 8.9756C25.96 9.13498 26.1981 9.34123 26.3556 9.49873C26.5525 9.69186 26.9181 10.095 27.0081 10.005V10.005Z" fill="url(#paint17_linear_147648_571)"/>
</g>
<path d="M23.23 8.8144C23.6162 8.49377 24.0644 8.25002 24.5425 8.1019C25.5269 7.79815 26.6425 7.91815 27.5125 8.47127C27.8125 8.66065 28.0806 8.8969 28.36 9.11815C28.6375 9.33752 28.9337 9.54377 29.2694 9.6619C29.4512 9.72565 29.6444 9.76315 29.8356 9.74252C30.0081 9.72565 30.175 9.66002 30.3175 9.56252C30.46 9.46315 30.58 9.3319 30.67 9.18377C30.85 8.88752 30.9081 8.52752 30.8762 8.18252C30.8144 7.49065 30.4244 6.88127 30.0981 6.26815C29.995 6.0769 29.8975 5.8819 29.7737 5.70377C29.3969 5.1544 28.7931 4.79252 28.1612 4.58065C27.5294 4.36877 26.8619 4.2919 26.2 4.2094C25.9037 4.1719 25.6056 4.13252 25.3112 4.16815C24.9719 4.2094 24.6531 4.34627 24.3212 4.43065C24.1637 4.4719 24.0044 4.50002 23.8487 4.54502C23.6931 4.59002 23.5394 4.6519 23.4119 4.75315C23.2281 4.90127 23.1119 5.1244 23.0612 5.35502C23.0106 5.58752 23.0219 5.82752 23.0594 6.0619C23.1325 6.53065 23.3087 6.98627 23.2919 7.46065C23.2806 7.78502 23.1775 8.10565 23.1906 8.43002C23.1944 8.52565 23.2131 8.72065 23.23 8.8144V8.8144Z" fill="url(#paint18_linear_147648_571)"/>
<g filter="url(#filter23_f_147648_571)">
<path d="M26.4869 5.84631C26.41 5.94381 26.3406 6.04881 26.2862 6.16506C26.6331 6.24006 26.9631 6.38256 27.2594 6.57944C27.8331 6.96006 28.2681 7.51506 28.5737 8.13381C28.645 8.05506 28.7087 7.97069 28.765 7.87694C28.4575 7.23194 28.015 6.64881 27.4225 6.25506C27.1375 6.06756 26.8206 5.92319 26.4869 5.84631V5.84631Z" fill="url(#paint19_linear_147648_571)"/>
</g>
<g filter="url(#filter24_f_147648_571)">
<path d="M19.21 16.7494C19.4856 17.5481 20.0387 18.2288 20.695 18.7594C20.9125 18.9375 21.1431 19.1006 21.4 19.215C21.655 19.3313 21.9381 19.3969 22.2175 19.3725C22.4912 19.35 22.7519 19.2413 22.9919 19.1063C23.2319 18.9713 23.4531 18.8081 23.6856 18.6619C24.0831 18.4088 24.5087 18.2044 24.9231 17.9794C25.42 17.7075 25.9037 17.3981 26.3219 17.0156C26.515 16.8413 26.6931 16.65 26.905 16.5C27.1169 16.3481 27.3719 16.2394 27.6306 16.2581C27.8256 16.2713 28.0075 16.3538 28.1987 16.395C28.2944 16.4156 28.3919 16.425 28.4894 16.41C28.585 16.395 28.6787 16.3556 28.7462 16.2844C28.8287 16.1981 28.8662 16.0744 28.8606 15.9544C28.8569 15.8363 28.8156 15.72 28.7594 15.615C28.6487 15.4031 28.48 15.2213 28.405 14.9944C28.3375 14.7919 28.3506 14.5744 28.3562 14.3625C28.3619 14.1488 28.3581 13.9275 28.2606 13.7381C28.1856 13.5956 28.06 13.4813 27.9175 13.4063C27.775 13.3294 27.6137 13.29 27.4525 13.275C27.13 13.245 26.8075 13.3088 26.4831 13.3256C26.0556 13.35 25.6244 13.2975 25.195 13.3219C24.6606 13.3556 24.1356 13.5094 23.5994 13.5113C22.9881 13.5131 22.3769 13.3125 21.7731 13.4081C21.5125 13.4494 21.265 13.5431 21.0175 13.6256C20.7681 13.71 20.5112 13.7831 20.2487 13.7794C19.9506 13.7738 19.6619 13.6706 19.3637 13.65C19.2156 13.6388 19.0637 13.65 18.9231 13.7025C18.7844 13.755 18.6587 13.8506 18.5894 13.9838C18.55 14.0588 18.5312 14.145 18.5275 14.2294C18.5237 14.3156 18.535 14.4 18.5556 14.4844C18.5969 14.6494 18.6737 14.805 18.7356 14.9625C18.9606 15.5381 19.0094 16.1663 19.21 16.7494V16.7494Z" fill="black" fill-opacity="0.258824"/>
</g>
<g opacity="0.3" filter="url(#filter25_f_147648_571)">
<path d="M18.4431 14.475C18.9775 14.805 19.4575 15.2118 19.8606 15.6731C20.2337 16.1025 20.5506 16.59 21.04 16.9068C21.3831 17.1318 21.7975 17.2575 22.2175 17.2968C22.7106 17.3418 23.2094 17.2687 23.6856 17.1393C24.1262 17.0212 24.5519 16.8525 24.9419 16.6312C25.6862 16.2093 26.3069 15.5906 27.1262 15.3131C27.3044 15.2512 27.49 15.2081 27.6625 15.1331C27.835 15.06 27.9981 14.9475 28.0806 14.79C28.1594 14.6362 28.1556 14.4618 28.1819 14.295C28.21 14.115 28.2719 13.9425 28.3056 13.7644C28.3394 13.5862 28.3431 13.3968 28.2606 13.2337C28.1912 13.0987 28.0656 12.9918 27.9212 12.9225C27.7769 12.855 27.6137 12.825 27.4506 12.8175C27.1281 12.8025 26.8075 12.8793 26.4831 12.9056C26.0556 12.9412 25.6244 12.8906 25.195 12.9037C24.6606 12.9187 24.1337 13.0293 23.5994 13.0537C22.99 13.08 22.3825 12.99 21.7731 12.9712C21.5087 12.9618 21.2425 12.9656 20.9837 13.0087C20.7231 13.05 20.4681 13.1306 20.2487 13.2656C20.035 13.395 19.8606 13.5731 19.6656 13.725C19.5681 13.8018 19.4631 13.8712 19.3506 13.9256C19.2362 13.9781 19.1106 14.0156 18.9831 14.0212C18.9175 14.0231 18.85 14.0193 18.7862 14.0287C18.6756 14.0437 18.5744 14.1018 18.5106 14.1843C18.4469 14.2687 18.4225 14.3756 18.4431 14.475V14.475Z" fill="black"/>
</g>
<path d="M21.1862 10.9745C21.4731 10.6538 21.6681 10.262 21.9419 9.93197C22.0787 9.76697 22.2381 9.61509 22.4237 9.50822C22.6094 9.40134 22.8269 9.34134 23.0406 9.36009C23.2787 9.38072 23.5019 9.49884 23.6762 9.66197C23.8506 9.82509 23.98 10.0313 24.0831 10.247C24.1825 10.4551 24.2612 10.6745 24.4037 10.8545C24.5556 11.0457 24.7675 11.1751 24.9606 11.327C25.0562 11.402 25.15 11.4826 25.225 11.5782C25.3019 11.6738 25.36 11.7845 25.3862 11.9045C25.4106 12.0263 25.3975 12.1538 25.3562 12.2701C25.3131 12.3863 25.2419 12.4913 25.1519 12.5776C24.9737 12.7501 24.73 12.8438 24.4844 12.8776C23.9931 12.947 23.4962 12.8007 22.9994 12.8138C22.4987 12.8288 22.0075 13.0051 21.505 12.9882C21.2556 12.9788 21.0006 12.917 20.7944 12.7745C20.6912 12.7013 20.6012 12.6095 20.5356 12.5026C20.4719 12.3957 20.4325 12.272 20.4269 12.1463C20.4231 12.0263 20.4512 11.9063 20.5 11.7976C20.5469 11.687 20.6144 11.5876 20.6894 11.4938C20.8412 11.3082 21.0269 11.1545 21.1862 10.9745Z" fill="url(#paint20_radial_147648_571)"/>
<path d="M18.4637 14.0719C18.475 14.1206 18.4919 14.1656 18.5162 14.2087C18.5594 14.28 18.6231 14.3381 18.6906 14.3869C18.7581 14.4375 18.8312 14.4787 18.9025 14.5219C19.2794 14.76 19.5869 15.0919 19.8606 15.4444C20.2262 15.9169 20.5506 16.44 21.04 16.7831C21.385 17.0269 21.7975 17.1637 22.2175 17.2069C22.7106 17.2556 23.2094 17.1769 23.6856 17.0362C24.1262 16.9069 24.5519 16.725 24.9419 16.4831C25.6862 16.0256 26.3069 15.3544 27.1262 15.0525C27.3044 14.9869 27.49 14.94 27.6625 14.8594C27.835 14.7769 27.9981 14.6569 28.0806 14.4844C28.1594 14.3194 28.1556 14.1281 28.1819 13.9462C28.21 13.7531 28.2719 13.5656 28.3056 13.3725C28.3394 13.1794 28.3431 12.9731 28.2606 12.795C28.1912 12.6487 28.0656 12.5325 27.9212 12.4594C27.7769 12.3844 27.6137 12.3506 27.4506 12.3431C27.1281 12.3281 26.8075 12.4106 26.4831 12.4406C26.0556 12.48 25.6244 12.4237 25.195 12.4369C24.6606 12.4537 24.1337 12.5737 23.5994 12.6C22.99 12.6281 22.3825 12.5344 21.7731 12.51C21.5087 12.4987 21.2425 12.5025 20.9819 12.5475C20.7212 12.5906 20.4662 12.6806 20.2487 12.8306C20.0369 12.9769 19.8681 13.1756 19.6731 13.3444C19.5756 13.4287 19.4706 13.5056 19.3544 13.5619C19.24 13.6181 19.1125 13.6537 18.9831 13.65C18.9175 13.6481 18.8481 13.6387 18.7862 13.6575C18.7469 13.6706 18.7112 13.695 18.6812 13.7231C18.6512 13.7531 18.6269 13.7869 18.6044 13.8206C18.55 13.8994 18.5031 13.9837 18.4637 14.0719V14.0719Z" fill="url(#paint21_radial_147648_571)"/>
<g filter="url(#filter26_f_147648_571)">
<path d="M20.8562 14.7301C20.7944 14.987 20.8319 15.2682 20.9612 15.5007C21.0887 15.7332 21.3062 15.9132 21.5594 15.9976C21.8781 16.1045 22.2381 16.052 22.5362 15.8963C22.7106 15.8063 22.8681 15.6788 22.9675 15.5101C23.0181 15.4276 23.0537 15.3338 23.0669 15.2363C23.0781 15.1407 23.0706 15.0395 23.0369 14.9476C22.9994 14.8482 22.9319 14.7601 22.8512 14.6907C22.7687 14.6213 22.6731 14.5707 22.57 14.537C22.3675 14.4695 22.0506 14.4132 21.8369 14.4095C21.4581 14.402 20.9181 14.4732 20.8562 14.7301V14.7301Z" fill="#D9B30D"/>
</g>
<g filter="url(#filter27_f_147648_571)">
<path d="M19.8081 12.7237C19.5906 12.8512 19.3825 12.9918 19.1781 13.1362C19.0712 13.2131 18.9625 13.2937 18.9062 13.4118C18.8669 13.4943 18.8575 13.5881 18.8556 13.68C18.8556 13.7737 18.8612 13.8656 18.8481 13.9575C18.8406 14.0193 18.8237 14.0812 18.8219 14.1431C18.82 14.175 18.8219 14.2068 18.8294 14.2368C18.8387 14.2668 18.8537 14.2968 18.8744 14.3193C18.9025 14.3493 18.94 14.3681 18.9794 14.3793C19.0187 14.3906 19.0581 14.3962 19.0994 14.4056C19.2887 14.4506 19.4537 14.5668 19.5981 14.6981C19.7425 14.8275 19.8737 14.9756 20.0256 15.0975C20.4344 15.4312 20.9762 15.57 21.505 15.5775C22.0337 15.5868 22.5569 15.4762 23.0725 15.36C23.4775 15.2681 23.8825 15.1743 24.2706 15.03C24.8706 14.8087 25.4256 14.475 25.9056 14.0568C26.125 13.8675 26.3294 13.6593 26.575 13.5056C26.7906 13.3687 27.0325 13.2787 27.2537 13.1493C27.2744 13.1381 27.2931 13.125 27.31 13.1118C27.3287 13.0968 27.3437 13.0781 27.355 13.0593C27.3719 13.0237 27.3719 12.9806 27.3606 12.9431C27.3494 12.9056 27.3269 12.8718 27.3025 12.84C27.2744 12.8062 27.2444 12.7762 27.2106 12.7462C26.98 12.5493 26.6687 12.4781 26.365 12.4537C26.0631 12.4312 25.7575 12.4481 25.4594 12.3975C25.1781 12.3506 24.9119 12.2456 24.64 12.1593C24.355 12.0675 24.0644 11.9962 23.77 11.9475C23.0744 11.8331 22.36 11.8556 21.6719 11.9981C21.0175 12.135 20.3837 12.3825 19.8081 12.7237V12.7237Z" fill="#604405"/>
</g>
<path d="M19.7387 11.9906C19.4275 12.2006 19.1462 12.4574 18.9081 12.7481C18.7731 12.9149 18.6494 13.0968 18.5819 13.2993C18.5275 13.4606 18.5087 13.6293 18.475 13.7962C18.4619 13.8581 18.4469 13.92 18.4487 13.9837C18.4487 14.0137 18.4525 14.0456 18.4619 14.0775C18.4712 14.1075 18.4881 14.1356 18.5087 14.1581C18.5462 14.1956 18.5969 14.2162 18.6475 14.2274C18.7 14.2368 18.7525 14.2387 18.805 14.2443C19.0394 14.2725 19.255 14.385 19.45 14.52C19.645 14.6531 19.825 14.8106 20.0256 14.9362C20.4662 15.2156 20.9931 15.3393 21.5162 15.3599C22.0375 15.3806 22.5587 15.3018 23.0725 15.1987C23.4794 15.1181 23.8844 15.0206 24.2706 14.8687C24.8631 14.6343 25.3975 14.2762 25.9056 13.8956C26.1381 13.7231 26.3669 13.5449 26.575 13.3443C26.6444 13.2749 26.7137 13.2056 26.7887 13.1418C26.8637 13.0799 26.9481 13.0256 27.0419 12.9956C27.1844 12.9506 27.3381 12.9637 27.4862 12.9881C27.5969 13.0068 27.7075 13.0312 27.82 13.0275C27.8762 13.0237 27.9325 13.0143 27.985 12.9937C28.0375 12.9731 28.0862 12.9412 28.1219 12.8962C28.1687 12.8399 28.1931 12.765 28.1931 12.6918C28.1931 12.6168 28.1706 12.5437 28.1331 12.4799C28.0581 12.3524 27.9287 12.2662 27.7937 12.2062C27.6081 12.1237 27.4075 12.0843 27.2106 12.0356C26.605 11.8893 26.0162 11.6737 25.4594 11.3962C25.1819 11.2593 24.9119 11.1074 24.64 10.9612C24.3587 10.8112 24.0737 10.6668 23.77 10.5731C23.0875 10.3668 22.345 10.4343 21.6719 10.6687C20.9256 10.9275 20.2506 11.3887 19.7387 11.9906V11.9906Z" fill="url(#paint22_linear_147648_571)"/>
<g filter="url(#filter28_f_147648_571)">
<path d="M24.5219 12.1406C24.4844 12.0956 24.4319 12.0618 24.3756 12.0449C24.3194 12.0281 24.2594 12.0281 24.2012 12.0374C24.085 12.0581 23.98 12.1199 23.8825 12.1874C23.6069 12.3768 23.3631 12.6112 23.1494 12.8699C22.8681 13.2131 22.6356 13.6087 22.5569 14.0456C22.5437 14.1187 22.5362 14.1956 22.5437 14.2687C22.5531 14.3437 22.5812 14.4168 22.6356 14.4693C22.6806 14.5162 22.7444 14.5443 22.8081 14.5537C22.8737 14.5631 22.9412 14.5537 23.0031 14.5331C23.1269 14.4918 23.23 14.4037 23.3294 14.3174C23.8675 13.8337 24.355 13.2562 24.55 12.5587C24.5687 12.4893 24.5856 12.4181 24.5856 12.3449C24.5856 12.2718 24.5669 12.1987 24.5219 12.1406V12.1406Z" fill="#F6DA4A"/>
</g>
<g opacity="0.8" filter="url(#filter29_f_147648_571)">
<path d="M21.385 11.0738C21.2406 11.027 21.0044 11.2801 21.0812 11.4095C21.1019 11.4451 21.1675 11.4901 21.2125 11.4657C21.2781 11.4301 21.3325 11.2988 21.4037 11.2482C21.4506 11.2145 21.4412 11.0907 21.385 11.0738Z" fill="url(#paint23_radial_147648_571)"/>
</g>
<g opacity="0.8" filter="url(#filter30_f_147648_571)">
<path d="M23.23 11.1413C23.2675 11.2613 23.4606 11.2406 23.5731 11.2988C23.6706 11.3494 23.7494 11.46 23.86 11.4638C23.965 11.4656 24.13 11.4263 24.1431 11.3213C24.16 11.1844 23.9594 11.0963 23.83 11.0456C23.6631 10.9819 23.4494 10.9481 23.2937 11.0344C23.2581 11.055 23.2187 11.1019 23.23 11.1413V11.1413Z" fill="url(#paint24_radial_147648_571)"/>
</g>
<g filter="url(#filter31_f_147648_571)">
<path d="M28.2381 12.9657C28.2207 13.1173 28.1554 13.2625 28.0566 13.3694C27.9578 13.4763 27.8336 13.5361 27.7112 13.5357C27.589 13.5357 27.4785 13.4758 27.404 13.3689C27.3295 13.2621 27.297 13.117 27.3137 12.9657C27.3222 12.8905 27.3425 12.816 27.3736 12.7466C27.4046 12.6771 27.4458 12.614 27.4947 12.5609C27.5437 12.5077 27.5994 12.4656 27.6588 12.437C27.7181 12.4083 27.7799 12.3936 27.8406 12.3938C27.9013 12.3937 27.9597 12.4085 28.0125 12.4372C28.0653 12.4659 28.1115 12.508 28.1485 12.5611C28.1854 12.6142 28.2123 12.6773 28.2277 12.7467C28.2431 12.8161 28.2466 12.8905 28.2381 12.9657V12.9657Z" fill="url(#paint25_linear_147648_571)"/>
</g>
<defs>
<filter id="filter0_f_147648_571" x="14.59" y="19.7043" width="6.24938" height="5.87807" filterUnits="userSpaceOnUse" color-interpolation-filters="sRGB">
<feFlood flood-opacity="0" result="BackgroundImageFix"/>
<feBlend mode="normal" in="SourceGraphic" in2="BackgroundImageFix" result="shape"/>
<feGaussianBlur stdDeviation="0.12" result="effect1_foregroundBlur_147648_571"/>
</filter>
<filter id="filter1_f_147648_571" x="23.1212" y="19.1531" width="9.42514" height="6.75941" filterUnits="userSpaceOnUse" color-interpolation-filters="sRGB">
<feFlood flood-opacity="0" result="BackgroundImageFix"/>
<feBlend mode="normal" in="SourceGraphic" in2="BackgroundImageFix" result="shape"/>
<feGaussianBlur stdDeviation="0.18375" result="effect1_foregroundBlur_147648_571"/>
</filter>
<filter id="filter2_f_147648_571" x="19.7856" y="19.9594" width="4.01438" height="4.25622" filterUnits="userSpaceOnUse" color-interpolation-filters="sRGB">
<feFlood flood-opacity="0" result="BackgroundImageFix"/>
<feBlend mode="normal" in="SourceGraphic" in2="BackgroundImageFix" result="shape"/>
<feGaussianBlur stdDeviation="0.1275" result="effect1_foregroundBlur_147648_571"/>
</filter>
<filter id="filter3_f_147648_571" x="19.7504" y="25.245" width="1.62386" height="10.6368" filterUnits="userSpaceOnUse" color-interpolation-filters="sRGB">
<feFlood flood-opacity="0" result="BackgroundImageFix"/>
<feBlend mode="normal" in="SourceGraphic" in2="BackgroundImageFix" result="shape"/>
<feGaussianBlur stdDeviation="0.234375" result="effect1_foregroundBlur_147648_571"/>
</filter>
<filter id="filter4_f_147648_571" x="32.9494" y="23.9375" width="2.96314" height="2.99711" filterUnits="userSpaceOnUse" color-interpolation-filters="sRGB">
<feFlood flood-opacity="0" result="BackgroundImageFix"/>
<feBlend mode="normal" in="SourceGraphic" in2="BackgroundImageFix" result="shape"/>
<feGaussianBlur stdDeviation="0.33375" result="effect1_foregroundBlur_147648_571"/>
</filter>
<filter id="filter5_f_147648_571" x="25.6825" y="1.40789" width="3.95828" height="3.8202" filterUnits="userSpaceOnUse" color-interpolation-filters="sRGB">
<feFlood flood-opacity="0" result="BackgroundImageFix"/>
<feBlend mode="normal" in="SourceGraphic" in2="BackgroundImageFix" result="shape"/>
<feGaussianBlur stdDeviation="0.324375" result="effect1_foregroundBlur_147648_571"/>
</filter>
<filter id="filter6_f_147648_571" x="29.5154" y="14.0133" width="2.55239" height="2.77641" filterUnits="userSpaceOnUse" color-interpolation-filters="sRGB">
<feFlood flood-opacity="0" result="BackgroundImageFix"/>
<feBlend mode="normal" in="SourceGraphic" in2="BackgroundImageFix" result="shape"/>
<feGaussianBlur stdDeviation="0.14625" result="effect1_foregroundBlur_147648_571"/>
</filter>
<filter id="filter7_f_147648_571" x="11.0763" y="22.936" width="5.08195" height="11.0238" filterUnits="userSpaceOnUse" color-interpolation-filters="sRGB">
<feFlood flood-opacity="0" result="BackgroundImageFix"/>
<feBlend mode="normal" in="SourceGraphic" in2="BackgroundImageFix" result="shape"/>
<feGaussianBlur stdDeviation="0.18375" result="effect1_foregroundBlur_147648_571"/>
</filter>
<filter id="filter8_f_147648_571" x="31.7575" y="21.8644" width="5.4346" height="13.9856" filterUnits="userSpaceOnUse" color-interpolation-filters="sRGB">
<feFlood flood-opacity="0" result="BackgroundImageFix"/>
<feBlend mode="normal" in="SourceGraphic" in2="BackgroundImageFix" result="shape"/>
<feGaussianBlur stdDeviation="0.223125" result="effect1_foregroundBlur_147648_571"/>
</filter>
<filter id="filter9_f_147648_571" x="3.347" y="31.9685" width="16.6887" height="16.5597" filterUnits="userSpaceOnUse" color-interpolation-filters="sRGB">
<feFlood flood-opacity="0" result="BackgroundImageFix"/>
<feBlend mode="normal" in="SourceGraphic" in2="BackgroundImageFix" result="shape"/>
<feGaussianBlur stdDeviation="0.63375" result="effect1_foregroundBlur_147648_571"/>
</filter>
<filter id="filter10_f_147648_571" x="4.3158" y="31.8344" width="14.1118" height="14.883" filterUnits="userSpaceOnUse" color-interpolation-filters="sRGB">
<feFlood flood-opacity="0" result="BackgroundImageFix"/>
<feBlend mode="normal" in="SourceGraphic" in2="BackgroundImageFix" result="shape"/>
<feGaussianBlur stdDeviation="0.39375" result="effect1_foregroundBlur_147648_571"/>
</filter>
<filter id="filter11_f_147648_571" x="13.48" y="35.1694" width="4.4925" height="7.95375" filterUnits="userSpaceOnUse" color-interpolation-filters="sRGB">
<feFlood flood-opacity="0" result="BackgroundImageFix"/>
<feBlend mode="normal" in="SourceGraphic" in2="BackgroundImageFix" result="shape"/>
<feGaussianBlur stdDeviation="0.06" result="effect1_foregroundBlur_147648_571"/>
</filter>
<filter id="filter12_f_147648_571" x="28.998" y="34.6032" width="13.0019" height="14.0224" filterUnits="userSpaceOnUse" color-interpolation-filters="sRGB">
<feFlood flood-opacity="0" result="BackgroundImageFix"/>
<feBlend mode="normal" in="SourceGraphic" in2="BackgroundImageFix" result="shape"/>
<feGaussianBlur stdDeviation="0.365625" result="effect1_foregroundBlur_147648_571"/>
</filter>
<filter id="filter13_f_147648_571" x="29.6968" y="32.2835" width="15.8681" height="16.0484" filterUnits="userSpaceOnUse" color-interpolation-filters="sRGB">
<feFlood flood-opacity="0" result="BackgroundImageFix"/>
<feBlend mode="normal" in="SourceGraphic" in2="BackgroundImageFix" result="shape"/>
<feGaussianBlur stdDeviation="0.7725" result="effect1_foregroundBlur_147648_571"/>
</filter>
<filter id="filter14_f_147648_571" x="30.5931" y="31.6834" width="14.5371" height="14.4743" filterUnits="userSpaceOnUse" color-interpolation-filters="sRGB">
<feFlood flood-opacity="0" result="BackgroundImageFix"/>
<feBlend mode="normal" in="SourceGraphic" in2="BackgroundImageFix" result="shape"/>
<feGaussianBlur stdDeviation="0.585" result="effect1_foregroundBlur_147648_571"/>
</filter>
<filter id="filter15_f_147648_571" x="31.4669" y="33.5187" width="9.19875" height="1.74585" filterUnits="userSpaceOnUse" color-interpolation-filters="sRGB">
<feFlood flood-opacity="0" result="BackgroundImageFix"/>
<feBlend mode="normal" in="SourceGraphic" in2="BackgroundImageFix" result="shape"/>
<feGaussianBlur stdDeviation="0.076875" result="effect1_foregroundBlur_147648_571"/>
</filter>
<filter id="filter16_f_147648_571" x="32.4484" y="33.5274" width="7.33794" height="6.55015" filterUnits="userSpaceOnUse" color-interpolation-filters="sRGB">
<feFlood flood-opacity="0" result="BackgroundImageFix"/>
<feBlend mode="normal" in="SourceGraphic" in2="BackgroundImageFix" result="shape"/>
<feGaussianBlur stdDeviation="0.459375" result="effect1_foregroundBlur_147648_571"/>
</filter>
<filter id="filter17_f_147648_571" x="32.9472" y="33.7188" width="6.34044" height="4.24723" filterUnits="userSpaceOnUse" color-interpolation-filters="sRGB">
<feFlood flood-opacity="0" result="BackgroundImageFix"/>
<feBlend mode="normal" in="SourceGraphic" in2="BackgroundImageFix" result="shape"/>
<feGaussianBlur stdDeviation="0.21" result="effect1_foregroundBlur_147648_571"/>
</filter>
<filter id="filter18_f_147648_571" x="33.4382" y="31.7414" width="6.30336" height="3.30038" filterUnits="userSpaceOnUse" color-interpolation-filters="sRGB">
<feFlood flood-opacity="0" result="BackgroundImageFix"/>
<feBlend mode="normal" in="SourceGraphic" in2="BackgroundImageFix" result="shape"/>
<feGaussianBlur stdDeviation="0.165" result="effect1_foregroundBlur_147648_571"/>
</filter>
<filter id="filter19_f_147648_571" x="33.4382" y="31.7414" width="6.30336" height="3.30038" filterUnits="userSpaceOnUse" color-interpolation-filters="sRGB">
<feFlood flood-opacity="0" result="BackgroundImageFix"/>
<feBlend mode="normal" in="SourceGraphic" in2="BackgroundImageFix" result="shape"/>
<feGaussianBlur stdDeviation="0.165" result="effect1_foregroundBlur_147648_571"/>
</filter>
<filter id="filter20_f_147648_571" x="19.7244" y="8.89469" width="1.17859" height="1.69145" filterUnits="userSpaceOnUse" color-interpolation-filters="sRGB">
<feFlood flood-opacity="0" result="BackgroundImageFix"/>
<feBlend mode="normal" in="SourceGraphic" in2="BackgroundImageFix" result="shape"/>
<feGaussianBlur stdDeviation="0.0825" result="effect1_foregroundBlur_147648_571"/>
</filter>
<filter id="filter21_f_147648_571" x="19.6194" y="6.11845" width="2.35431" height="2.12601" filterUnits="userSpaceOnUse" color-interpolation-filters="sRGB">
<feFlood flood-opacity="0" result="BackgroundImageFix"/>
<feBlend mode="normal" in="SourceGraphic" in2="BackgroundImageFix" result="shape"/>
<feGaussianBlur stdDeviation="0.0225" result="effect1_foregroundBlur_147648_571"/>
</filter>
<filter id="filter22_f_147648_571" x="25.768" y="8.73848" width="1.46508" height="1.44822" filterUnits="userSpaceOnUse" color-interpolation-filters="sRGB">
<feFlood flood-opacity="0" result="BackgroundImageFix"/>
<feBlend mode="normal" in="SourceGraphic" in2="BackgroundImageFix" result="shape"/>
<feGaussianBlur stdDeviation="0.084375" result="effect1_foregroundBlur_147648_571"/>
</filter>
<filter id="filter23_f_147648_571" x="26.2375" y="5.79756" width="2.57624" height="2.38498" filterUnits="userSpaceOnUse" color-interpolation-filters="sRGB">
<feFlood flood-opacity="0" result="BackgroundImageFix"/>
<feBlend mode="normal" in="SourceGraphic" in2="BackgroundImageFix" result="shape"/>
<feGaussianBlur stdDeviation="0.024375" result="effect1_foregroundBlur_147648_571"/>
</filter>
<filter id="filter24_f_147648_571" x="17.8705" y="12.6108" width="11.6469" height="7.42297" filterUnits="userSpaceOnUse" color-interpolation-filters="sRGB">
<feFlood flood-opacity="0" result="BackgroundImageFix"/>
<feBlend mode="normal" in="SourceGraphic" in2="BackgroundImageFix" result="shape"/>
<feGaussianBlur stdDeviation="0.328125" result="effect1_foregroundBlur_147648_571"/>
</filter>
<filter id="filter25_f_147648_571" x="18.136" y="12.5156" width="10.4922" height="5.09463" filterUnits="userSpaceOnUse" color-interpolation-filters="sRGB">
<feFlood flood-opacity="0" result="BackgroundImageFix"/>
<feBlend mode="normal" in="SourceGraphic" in2="BackgroundImageFix" result="shape"/>
<feGaussianBlur stdDeviation="0.15" result="effect1_foregroundBlur_147648_571"/>
</filter>
<filter id="filter26_f_147648_571" x="20.5384" y="14.1202" width="2.82213" height="2.22228" filterUnits="userSpaceOnUse" color-interpolation-filters="sRGB">
<feFlood flood-opacity="0" result="BackgroundImageFix"/>
<feBlend mode="normal" in="SourceGraphic" in2="BackgroundImageFix" result="shape"/>
<feGaussianBlur stdDeviation="0.144375" result="effect1_foregroundBlur_147648_571"/>
</filter>
<filter id="filter27_f_147648_571" x="18.5774" y="11.6308" width="9.03477" height="4.19099" filterUnits="userSpaceOnUse" color-interpolation-filters="sRGB">
<feFlood flood-opacity="0" result="BackgroundImageFix"/>
<feBlend mode="normal" in="SourceGraphic" in2="BackgroundImageFix" result="shape"/>
<feGaussianBlur stdDeviation="0.121875" result="effect1_foregroundBlur_147648_571"/>
</filter>
<filter id="filter28_f_147648_571" x="22.267" y="11.7574" width="2.59236" height="3.07375" filterUnits="userSpaceOnUse" color-interpolation-filters="sRGB">
<feFlood flood-opacity="0" result="BackgroundImageFix"/>
<feBlend mode="normal" in="SourceGraphic" in2="BackgroundImageFix" result="shape"/>
<feGaussianBlur stdDeviation="0.136875" result="effect1_foregroundBlur_147648_571"/>
</filter>
<filter id="filter29_f_147648_571" x="21.0287" y="11.0306" width="0.442523" height="0.479541" filterUnits="userSpaceOnUse" color-interpolation-filters="sRGB">
<feFlood flood-opacity="0" result="BackgroundImageFix"/>
<feBlend mode="normal" in="SourceGraphic" in2="BackgroundImageFix" result="shape"/>
<feGaussianBlur stdDeviation="0.01875" result="effect1_foregroundBlur_147648_571"/>
</filter>
<filter id="filter30_f_147648_571" x="23.1905" y="10.945" width="0.991077" height="0.556323" filterUnits="userSpaceOnUse" color-interpolation-filters="sRGB">
<feFlood flood-opacity="0" result="BackgroundImageFix"/>
<feBlend mode="normal" in="SourceGraphic" in2="BackgroundImageFix" result="shape"/>
<feGaussianBlur stdDeviation="0.01875" result="effect1_foregroundBlur_147648_571"/>
</filter>
<filter id="filter31_f_147648_571" x="27.2232" y="12.3075" width="1.10568" height="1.31435" filterUnits="userSpaceOnUse" color-interpolation-filters="sRGB">
<feFlood flood-opacity="0" result="BackgroundImageFix"/>
<feBlend mode="normal" in="SourceGraphic" in2="BackgroundImageFix" result="shape"/>
<feGaussianBlur stdDeviation="0.043125" result="effect1_foregroundBlur_147648_571"/>
</filter>
<radialGradient id="paint0_radial_147648_571" cx="0" cy="0" r="1" gradientUnits="userSpaceOnUse" gradientTransform="translate(15.4713 22.7231) scale(3.5625 3.375)">
<stop/>
<stop offset="1" stop-opacity="0.25"/>
</radialGradient>
<radialGradient id="paint1_radial_147648_571" cx="0" cy="0" r="1" gradientUnits="userSpaceOnUse" gradientTransform="translate(27.5762 24.675) scale(4.425 3.375)">
<stop/>
<stop offset="1" stop-opacity="0.25"/>
</radialGradient>
<radialGradient id="paint2_radial_147648_571" cx="0" cy="0" r="1" gradientUnits="userSpaceOnUse" gradientTransform="translate(21.6644 23.9006) scale(1.75312 1.875)">
<stop/>
<stop offset="1" stop-opacity="0.25"/>
</radialGradient>
<linearGradient id="paint3_linear_147648_571" x1="8.34625" y1="36.1895" x2="16.0581" y2="49.1288" gradientUnits="userSpaceOnUse">
<stop stop-color="#B98309"/>
<stop offset="1" stop-color="#382605"/>
</linearGradient>
<linearGradient id="paint4_linear_147648_571" x1="16.0881" y1="39.5307" x2="18.5144" y2="44.1019" gradientUnits="userSpaceOnUse">
<stop stop-color="#EBC40C"/>
<stop offset="1" stop-color="#EBC40C" stop-opacity="0"/>
</linearGradient>
<linearGradient id="paint5_linear_147648_571" x1="31.5494" y1="39.7424" x2="32.1625" y2="44.1993" gradientUnits="userSpaceOnUse">
<stop/>
<stop offset="1" stop-opacity="0"/>
</linearGradient>
<linearGradient id="paint6_linear_147648_571" x1="32.4063" y1="47.4412" x2="40.1763" y2="34.8449" gradientUnits="userSpaceOnUse">
<stop stop-color="#3E2A06"/>
<stop offset="1" stop-color="#AD780A"/>
</linearGradient>
<linearGradient id="paint7_linear_147648_571" x1="34.5269" y1="33.8757" x2="34.2981" y2="35.9325" gradientUnits="userSpaceOnUse">
<stop stop-color="#F3CD0C"/>
<stop offset="1" stop-color="#F3CD0C" stop-opacity="0"/>
</linearGradient>
<radialGradient id="paint8_radial_147648_571" cx="0" cy="0" r="1" gradientUnits="userSpaceOnUse" gradientTransform="translate(35.8206 36.4744) rotate(15) scale(3.68625 3.87)">
<stop stop-color="#110800"/>
<stop offset="0.59" stop-color="#A65A00" stop-opacity="0.8"/>
<stop offset="1" stop-color="#FF921E" stop-opacity="0"/>
</radialGradient>
<radialGradient id="paint9_radial_147648_571" cx="0" cy="0" r="1" gradientUnits="userSpaceOnUse" gradientTransform="translate(35.8206 35.6044) rotate(-2.42) scale(3.70125 2.78625)">
<stop stop-color="#110800"/>
<stop offset="0.59" stop-color="#A65A00" stop-opacity="0.8"/>
<stop offset="1" stop-color="#FF921E" stop-opacity="0"/>
</radialGradient>
<radialGradient id="paint10_radial_147648_571" cx="0" cy="0" r="1" gradientUnits="userSpaceOnUse" gradientTransform="translate(38.6219 33.1162) rotate(23.5) scale(1.30313 0.601875)">
<stop stop-color="#7C7C7C"/>
<stop offset="1" stop-color="#7C7C7C" stop-opacity="0.33"/>
</radialGradient>
<linearGradient id="paint11_linear_147648_571" x1="35.0669" y1="32.5462" x2="35.5506" y2="32.5255" gradientUnits="userSpaceOnUse">
<stop stop-color="#7C7C7C"/>
<stop offset="1" stop-color="#7C7C7C" stop-opacity="0.33"/>
</linearGradient>
<radialGradient id="paint12_radial_147648_571" cx="0" cy="0" r="1" gradientUnits="userSpaceOnUse" gradientTransform="translate(20.2169 9.63936) rotate(-0.6) scale(1.92 2.94)">
<stop stop-color="#FEFEFC"/>
<stop offset="0.75" stop-color="#FEFEFC"/>
<stop offset="1" stop-color="#D4D4D4"/>
</radialGradient>
<linearGradient id="paint13_linear_147648_571" x1="19.8044" y1="8.74507" x2="20.7475" y2="10.4307" gradientUnits="userSpaceOnUse">
<stop stop-color="#757574" stop-opacity="0"/>
<stop offset="0.25" stop-color="#757574"/>
<stop offset="0.5" stop-color="#757574"/>
<stop offset="1" stop-color="#757574" stop-opacity="0"/>
</linearGradient>
<radialGradient id="paint14_radial_147648_571" cx="0" cy="0" r="1" gradientUnits="userSpaceOnUse" gradientTransform="translate(19.9169 8.20128) rotate(-9.35) scale(1.17187 1.08187)">
<stop stop-color="#C8C8C8"/>
<stop offset="1" stop-color="#797978"/>
</radialGradient>
<linearGradient id="paint15_linear_147648_571" x1="19.6731" y1="6.09568" x2="21.715" y2="8.18068" gradientUnits="userSpaceOnUse">
<stop stop-color="#646464" stop-opacity="0"/>
<stop offset="0.31" stop-color="#646464" stop-opacity="0.58"/>
<stop offset="0.47" stop-color="#646464"/>
<stop offset="0.73" stop-color="#646464" stop-opacity="0.26"/>
<stop offset="1" stop-color="#646464" stop-opacity="0"/>
</linearGradient>
<radialGradient id="paint16_radial_147648_571" cx="0" cy="0" r="1" gradientUnits="userSpaceOnUse" gradientTransform="translate(26.1362 9.63934) rotate(-1.8) scale(2.5575 2.94)">
<stop stop-color="#FEFEFC"/>
<stop offset="0.75" stop-color="#FEFEFC"/>
<stop offset="1" stop-color="#D4D4D4"/>
</radialGradient>
<linearGradient id="paint17_linear_147648_571" x1="26.1006" y1="8.85935" x2="27.1862" y2="10.1456" gradientUnits="userSpaceOnUse">
<stop stop-color="#949494" stop-opacity="0.39"/>
<stop offset="0.5" stop-color="#949494"/>
<stop offset="1" stop-color="#949494" stop-opacity="0.39"/>
</linearGradient>
<linearGradient id="paint18_linear_147648_571" x1="25.1687" y1="6.79315" x2="28.6225" y2="8.8144" gradientUnits="userSpaceOnUse">
<stop stop-color="#747474"/>
<stop offset="0.13" stop-color="#8C8C8C"/>
<stop offset="0.25" stop-color="#A4A4A4"/>
<stop offset="0.5" stop-color="#D4D4D4"/>
<stop offset="0.62" stop-color="#D4D4D4"/>
<stop offset="1" stop-color="#7C7C7C"/>
</linearGradient>
<linearGradient id="paint19_linear_147648_571" x1="26.3425" y1="5.91756" x2="28.6412" y2="8.08881" gradientUnits="userSpaceOnUse">
<stop stop-color="#646464" stop-opacity="0"/>
<stop offset="0.31" stop-color="#646464" stop-opacity="0.58"/>
<stop offset="0.47" stop-color="#646464"/>
<stop offset="0.73" stop-color="#646464" stop-opacity="0.26"/>
<stop offset="1" stop-color="#646464" stop-opacity="0"/>
</linearGradient>
<radialGradient id="paint20_radial_147648_571" cx="0" cy="0" r="1" gradientUnits="userSpaceOnUse" gradientTransform="translate(22.3075 11.2726) rotate(-36) scale(2.145 1.94625)">
<stop stop-color="#020204"/>
<stop offset="0.73" stop-color="#020204"/>
<stop offset="1" stop-color="#5C5C5C"/>
</radialGradient>
<radialGradient id="paint21_radial_147648_571" cx="0" cy="0" r="1" gradientUnits="userSpaceOnUse" gradientTransform="translate(24.5819 13.2394) rotate(-22.4) scale(5.09062 3.57562)">
<stop stop-color="#D2940A"/>
<stop offset="0.75" stop-color="#D89C08"/>
<stop offset="0.87" stop-color="#B67E07"/>
<stop offset="1" stop-color="#946106"/>
</radialGradient>
<linearGradient id="paint22_linear_147648_571" x1="18.6419" y1="12.9862" x2="27.7694" y2="12.9149" gradientUnits="userSpaceOnUse">
<stop stop-color="#AD780A"/>
<stop offset="0.12" stop-color="#D89E08"/>
<stop offset="0.25" stop-color="#EDB80B"/>
<stop offset="0.39" stop-color="#EBC80D"/>
<stop offset="0.53" stop-color="#F5D838"/>
<stop offset="0.77" stop-color="#F6D811"/>
<stop offset="1" stop-color="#F5CD31"/>
</linearGradient>
<radialGradient id="paint23_radial_147648_571" cx="0" cy="0" r="1" gradientUnits="userSpaceOnUse" gradientTransform="translate(21.2706 11.2276) scale(0.2475 0.26625)">
<stop stop-color="#3A2903"/>
<stop offset="0.55" stop-color="#735208"/>
<stop offset="1" stop-color="#AC8C04"/>
</radialGradient>
<radialGradient id="paint24_radial_147648_571" cx="0" cy="0" r="1" gradientUnits="userSpaceOnUse" gradientTransform="translate(23.6219 11.1938) scale(0.52125 0.30375)">
<stop stop-color="#3A2903"/>
<stop offset="0.55" stop-color="#735208"/>
<stop offset="1" stop-color="#AC8C04"/>
</radialGradient>
<linearGradient id="paint25_linear_147648_571" x1="27.7637" y1="12.6544" x2="27.7637" y2="13.3294" gradientUnits="userSpaceOnUse">
<stop stop-color="#F5CE2D"/>
<stop offset="1" stop-color="#D79B08"/>
</linearGradient>
</defs>
</svg>
