<svg width="48" height="48" viewBox="0 0 48 48" fill="none" xmlns="http://www.w3.org/2000/svg">
<path d="M0 8C0 3.58172 3.58172 0 8 0H40C44.4183 0 48 3.58172 48 8V40C48 44.4183 44.4183 48 40 48H8C3.58172 48 0 44.4183 0 40V8Z" fill="#232F3E"/>
<path d="M25.8886 8.60602L28.2732 10.9907L14.1726 25.0913L11.788 22.7066L25.8886 8.60602Z" fill="white"/>
<path d="M35.2544 8.57147L37.6391 10.9561L23.5385 25.0567L21.1538 22.6721L35.2544 8.57147Z" fill="white"/>
<path d="M15.5518 39.226L14.5883 35.2956L13.6139 39.226H12.0703L10.2857 33.6315H11.9717L12.9023 37.6713L13.9095 33.6315H15.3437L16.3729 37.6823L17.2487 33.6315H18.8909L17.0954 39.226H15.5518Z" fill="white"/>
<path d="M19.7652 39.226V33.6315H21.3636V39.226H19.7652ZM20.5644 32.7666C20.287 32.7666 20.0644 32.6899 19.8965 32.5367C19.7287 32.3834 19.6447 32.1754 19.6447 31.9126C19.6447 31.6499 19.7287 31.4418 19.8965 31.2886C20.0644 31.1353 20.287 31.0587 20.5644 31.0587C20.8417 31.0587 21.0643 31.1353 21.2322 31.2886C21.4001 31.4418 21.484 31.6499 21.484 31.9126C21.484 32.1754 21.4001 32.3834 21.2322 32.5367C21.0643 32.6899 20.8417 32.7666 20.5644 32.7666Z" fill="white"/>
<path d="M26.9794 38.9851C26.7823 39.1019 26.5451 39.1895 26.2678 39.2479C25.9904 39.3135 25.7021 39.3464 25.4029 39.3464C24.5124 39.3464 23.83 39.0982 23.3556 38.6019C22.8884 38.1056 22.6549 37.3903 22.6549 36.4561C22.6549 35.5291 22.903 34.8066 23.3993 34.2884C23.8957 33.7701 24.5854 33.511 25.4685 33.511C26.0013 33.511 26.494 33.6278 26.9465 33.8614V34.9233C26.5159 34.7993 26.1218 34.7372 25.7641 34.7372C25.2532 34.7372 24.8773 34.8686 24.6365 35.1314C24.3956 35.3868 24.2752 35.7955 24.2752 36.3575V36.5108C24.2752 37.0655 24.392 37.4743 24.6255 37.737C24.8664 37.9925 25.235 38.1202 25.7313 38.1202C26.0889 38.1202 26.505 38.0545 26.9794 37.9231V38.9851Z" fill="white"/>
<path d="M28.1142 39.226V31.1243H29.7017V36.0182L31.6395 33.6315H33.5445L31.2344 36.3028L33.7197 39.226H31.7709L29.7017 36.675V39.226H28.1142Z" fill="white"/>
<path d="M34.4864 39.226V33.6315H35.8001L35.9972 34.4635C36.2892 34.1424 36.5629 33.9161 36.8183 33.7847C37.0811 33.6461 37.3584 33.5767 37.6504 33.5767C37.7891 33.5767 37.935 33.5877 38.0883 33.6096V35.0876C37.8839 35.0438 37.6577 35.0219 37.4095 35.0219C36.9351 35.0219 36.4935 35.1058 36.0848 35.2737V39.226H34.4864Z" fill="white"/>
</svg>
