<svg width="48" height="48" viewBox="0 0 48 48" fill="none" xmlns="http://www.w3.org/2000/svg">
<path d="M0 24C0 10.7452 10.7452 0 24 0C37.2548 0 48 10.7452 48 24C48 37.2548 37.2548 48 24 48C10.7452 48 0 37.2548 0 24Z" fill="white"/>
<path fill-rule="evenodd" clip-rule="evenodd" d="M29.614 33.43C33.3199 33.43 36.3014 30.4369 36.3014 26.7576L36.3015 13.8051H37.8828V26.7575C37.8828 31.3023 34.1835 35 29.6057 35C27.6649 35 25.9065 34.3304 24.4913 33.2183C23.0761 34.3304 21.2761 35 19.3353 35C14.7575 35 11 31.3023 11 26.7575V13.8051H12.5813V26.7576C12.5813 30.4368 15.6127 33.43 19.3186 33.43C20.8114 33.43 22.2038 32.9385 23.3204 32.118C22.072 30.6752 21.2787 28.8044 21.2787 26.7576L21.2814 16.14C21.2814 14.4086 22.7002 13 24.4441 13C26.188 13 27.6067 14.4087 27.6067 16.14L27.604 26.7576C27.604 28.8043 26.8607 30.6752 25.6122 32.118C26.7288 32.9385 28.1214 33.43 29.614 33.43ZM22.86 26.7575C22.86 28.3909 23.4562 29.8872 24.4413 31.0483C25.4264 29.8872 26.0226 28.3909 26.0226 26.7576L26.0254 16.1399C26.0254 15.2741 25.316 14.57 24.4441 14.57C23.5722 14.57 22.8628 15.2741 22.8628 16.1399L22.86 26.7575Z" fill="black"/>
</svg>
