<svg width="48" height="48" viewBox="0 0 48 48" fill="none" xmlns="http://www.w3.org/2000/svg">
<rect width="48" height="48" rx="8" fill="#107C10"/>
<path fill-rule="evenodd" clip-rule="evenodd" d="M18.5184 12.5403C19.6903 12.8575 21.2608 13.4792 22.0085 13.9219C22.9351 14.4705 23.3373 14.7197 23.7263 14.7005C24.0531 14.6844 24.3705 14.479 24.9816 14.1026C26.5066 13.1633 30.3158 12.0093 31.1901 12.2217C31.5826 12.3171 30.9296 11.9155 29.7389 11.3292C26.6796 9.82294 22.5735 9.57717 19.1042 10.6927C17.7788 11.1189 16.6254 11.5792 16.5411 11.7156C16.4568 11.852 17.3466 12.2231 18.5184 12.5403ZM35.2105 31.9648C35.1722 29.1905 33.0011 24.9987 29.0706 20.1102L27.1705 17.747L28.874 16.1838C29.811 15.3239 31.1424 14.318 31.8327 13.9483L33.0878 13.2761L34.4781 14.6311C35.2428 15.3764 36.3592 16.9808 36.959 18.1965C37.8988 20.1011 38.0658 20.8411 38.167 23.5472C38.3027 27.1766 37.7502 29.5197 36.2195 31.8067L35.2287 33.2872L35.2105 31.9648ZM9.67628 19.7419C8.32938 23.2881 9.05503 28.7506 11.3137 32.0679C12.2041 33.3756 12.4067 33.5097 12.1181 32.6001C11.5459 30.7974 14.5032 24.8622 18.343 20.1068L20.2539 17.7403L18.4695 16.142C17.488 15.263 16.1674 14.265 15.5347 13.9243C14.4702 13.351 14.322 13.3457 13.5481 13.8527C12.4769 14.5546 10.5105 17.5456 9.67628 19.7419ZM12.9543 33.5315C12.9543 34.8707 16.8171 37.3516 20.281 38.2369C23.9714 39.1803 29.1466 38.1726 32.3116 35.8946C34.9358 34.0058 35.024 33.3399 33.0458 30.3533C31.8266 28.5127 26.377 22.8681 24.6738 21.6818L23.5896 20.9267L21.1721 23.0125C16.8748 26.7203 12.9543 31.7385 12.9543 33.5315Z" fill="white"/>
</svg>
