<svg width="48" height="48" viewBox="0 0 48 48" fill="none" xmlns="http://www.w3.org/2000/svg">
<path d="M48 24C48 10.7452 37.2548 0 24 0C10.7452 0 0 10.7452 0 24C0 37.2548 10.7452 48 24 48C37.2548 48 48 37.2548 48 24Z" fill="#FF0000"/>
<path d="M23.99 12.6757C23.99 12.6757 13.875 12.6757 11.3362 13.3353C9.97692 13.7152 8.85762 14.8345 8.47781 16.2138C7.81814 18.7525 7.81812 24.01 7.81812 24.01C7.81812 24.01 7.81814 29.2875 8.47781 31.7863C8.85762 33.1656 9.95693 34.2649 11.3362 34.6447C13.895 35.3244 23.99 35.3244 23.99 35.3244C23.99 35.3244 34.1251 35.3244 36.6637 34.6647C38.0431 34.2849 39.1424 33.2056 39.5022 31.8063C40.1819 29.2875 40.1819 24.03 40.1819 24.03C40.1819 24.03 40.2018 18.7525 39.5022 16.2138C39.1424 14.8345 38.0431 13.7352 36.6637 13.3753C34.1251 12.6757 23.99 12.6757 23.99 12.6757V12.6757ZM20.7716 19.1525L29.1875 24.01L20.7716 28.8475V19.1525V19.1525Z" fill="white"/>
</svg>
