<svg xmlns="http://www.w3.org/2000/svg" viewBox="0 0 1064 2147"><defs><style>.cls-1{fill:#333343;}</style></defs><g id="Capa_2" data-name="Capa 2"><g id="Слой_2" data-name="Слой 2"><path class="cls-1" d="M1047.37,339.5h-2V127.36A127.36,127.36,0,0,0,918,0H146A127.36,127.36,0,0,0,18.65,127.36V339.5h-2A16.62,16.62,0,0,0,0,356.13V502.87A16.62,16.62,0,0,0,16.63,519.5h2v35h-2A16.62,16.62,0,0,0,0,571.13V717.87A16.62,16.62,0,0,0,16.63,734.5h2V2019.64A127.36,127.36,0,0,0,146,2147H918a127.36,127.36,0,0,0,127.36-127.36V609.5h2A16.62,16.62,0,0,0,1064,592.87V356.13A16.62,16.62,0,0,0,1047.37,339.5Zm-39.08,1672.56A103.44,103.44,0,0,1,904.85,2115.5H159.15A103.44,103.44,0,0,1,55.71,2012.06V134.94A103.44,103.44,0,0,1,159.15,31.5h745.7a103.44,103.44,0,0,1,103.44,103.44Z"/></g></g></svg>