<svg xmlns="http://www.w3.org/2000/svg" viewBox="0 0 946.13 304.78"><defs><style>.cls-1,.cls-5{fill:#333;}.cls-2{fill:none;}.cls-3{fill:gray;}.cls-4{fill:#fff;}.cls-5{font-size:281.68px;font-family:Raleway-SemiBold, Raleway;font-weight:600;letter-spacing:-0.03em;}.cls-6{letter-spacing:-0.06em;}</style></defs><g id="Capa_2" data-name="Capa 2"><g id="Capa_1-2" data-name="Capa 1"><circle class="cls-1" cx="100.01" cy="142.98" r="100.01"/><path class="cls-2" d="M72.56,149.18,57.47,164.27a15,15,0,0,0,21.25,21.25l15.1-15.09a34.55,34.55,0,0,1-21.26-21.25Z"/><path class="cls-2" d="M127.46,136.78l15.1-15.09a15,15,0,1,0-21.26-21.25l-15.09,15.09a34.5,34.5,0,0,1,21.25,21.25Z"/><ellipse class="cls-2" cx="99.99" cy="142.98" rx="7.7" ry="13.12" transform="translate(-71.81 112.58) rotate(-45)"/><path class="cls-3" d="M107.11,116,95.25,127.43a14.9,14.9,0,0,0-4,6.46,15,15,0,0,1,14.24,25.36L93.66,170.66l-15.38,14.8a15,15,0,1,1-20.84-21.65L72.82,149A34.71,34.71,0,0,1,77,119a34.49,34.49,0,0,0-5.82,4.52L43.9,149.73a34.56,34.56,0,0,0,47.93,49.81l27.24-26.22a34.55,34.55,0,0,0-12-57.31Z"/><path class="cls-4" d="M107.49,86.62,80.76,113.36a34.29,34.29,0,0,0-4.63,5.73,34.56,34.56,0,0,0,4.63,43.15,34.37,34.37,0,0,0,13.06,8.19l11.64-11.64a14.89,14.89,0,0,0,3.83-6.54,15,15,0,0,1-14.72-25.08l11.64-11.64,15.09-15.09a15,15,0,1,1,21.26,21.25l-15.1,15.09a34.66,34.66,0,0,1-3.56,30.08,34.23,34.23,0,0,0,5.73-4.62l26.74-26.74a34.56,34.56,0,1,0-48.88-48.88Z"/><text class="cls-5" transform="translate(202.5 240.84)">lin<tspan class="cls-6" x="295.76" y="0">k</tspan><tspan x="434.06" y="0">ea</tspan></text></g></g></svg>