<svg xmlns="http://www.w3.org/2000/svg" viewBox="0 0 951.63 208.45"><defs><style>.cls-1{fill:#fff;}</style></defs><g id="Capa_2" data-name="Capa 2"><g id="Capa_1-2" data-name="Capa 1"><path class="cls-1" d="M126,59.7,110.33,75.38,98.24,87.47a15.43,15.43,0,0,0-4,6.79,15.61,15.61,0,0,0,19.27,19.27,15.55,15.55,0,0,1-4,6.78l-12.1,12.1a35.87,35.87,0,0,1-22-22L59.67,125.53A15.61,15.61,0,1,0,81.32,148l16-15.37,12.33-11.86A15.61,15.61,0,0,0,94.83,94.45a15.48,15.48,0,0,1,4.11-6.71l12.32-11.86h0a35.85,35.85,0,0,1,21.28,21.44l15.54-15.54A15.61,15.61,0,0,0,126,59.7Z"/><path class="cls-1" d="M103.89,0A103.89,103.89,0,1,0,207.78,103.89,103.89,103.89,0,0,0,103.89,0Zm58.54,96.13L134.66,123.9a36.75,36.75,0,0,1-5.19,4.28c-.28.46-.56.92-.86,1.37a35.73,35.73,0,0,1-4.92,5.86l-28.3,27.24A35.9,35.9,0,1,1,45.6,110.91L73.9,83.67a37,37,0,0,1,4.71-3.82c.16-.25.3-.52.47-.77a36,36,0,0,1,4.81-6l27.77-27.77a35.9,35.9,0,1,1,50.77,50.78Z"/><path class="cls-1" d="M229.13,0h31V163.1q0,8.16,4.22,12.81t11.83,4.65a27.48,27.48,0,0,0,7.18-1.13c2.72-.75,5.31-1.59,7.75-2.53l4.51,24.22a71.87,71.87,0,0,1-16.06,4.93,87.08,87.08,0,0,1-16.62,1.83q-16.05,0-24.93-8.73t-8.87-24.79Z"/><path class="cls-1" d="M305.18,34.08V0h31V34.08Zm0,171.55V58.31h31V205.63Z"/><path class="cls-1" d="M497,205.63H466V123.1q0-20.85-6.62-30.29t-19.57-9.43a38.32,38.32,0,0,0-13.53,2.53,47.35,47.35,0,0,0-12.67,7.19,55.39,55.39,0,0,0-10.56,11,50.42,50.42,0,0,0-7.19,14v87.6h-31V58.31h28.17V87.89a59.89,59.89,0,0,1,24.5-23.53,74.14,74.14,0,0,1,35.49-8.59q13.24,0,21.69,4.79a35.79,35.79,0,0,1,13.38,13.1A57.18,57.18,0,0,1,495,92.81a127.88,127.88,0,0,1,2,23Z"/><path class="cls-1" d="M627.14,205.63l-47-67.89-24.51,23.1v44.79h-31V0h31V130.42L623.2,58.59H657l-57.18,61.69,60.28,85.35Z"/><path class="cls-1" d="M729.67,208.45a78.31,78.31,0,0,1-31.27-6.06,72.7,72.7,0,0,1-24.08-16.48,74.1,74.1,0,0,1-15.49-24.22,78.35,78.35,0,0,1-5.5-29.3,79.4,79.4,0,0,1,5.5-29.43,75.39,75.39,0,0,1,15.49-24.51A71.73,71.73,0,0,1,698.4,61.83,79.07,79.07,0,0,1,730,55.77,75.86,75.86,0,0,1,761.08,62a74.5,74.5,0,0,1,23.8,16.48A70.75,70.75,0,0,1,800,102.39,79.65,79.65,0,0,1,805.16,131q0,3.39-.28,6.34c-.19,2-.38,3.62-.56,4.93h-118A50.25,50.25,0,0,0,690.94,160a46.54,46.54,0,0,0,9.86,13.66,42.67,42.67,0,0,0,13.8,8.87,43.11,43.11,0,0,0,16.2,3.1,49.38,49.38,0,0,0,12.25-1.55,42.81,42.81,0,0,0,11.13-4.51,39.29,39.29,0,0,0,9-7.18,33.85,33.85,0,0,0,6.2-9.29l26.48,7.6q-7.61,16.62-25.21,27.18T729.67,208.45Zm44.79-87.61a49.35,49.35,0,0,0-4.65-17.18,44,44,0,0,0-9.72-13.38,43.4,43.4,0,0,0-13.8-8.59,45,45,0,0,0-16.62-3.1,44.08,44.08,0,0,0-30.14,11.69A42.35,42.35,0,0,0,690,103.66a51.48,51.48,0,0,0-4.5,17.18Z"/><path class="cls-1" d="M861.21,208.45a55,55,0,0,1-19.86-3.52,48.05,48.05,0,0,1-15.77-9.72,45.16,45.16,0,0,1-10.42-14.65,44,44,0,0,1-3.81-18.31,39.52,39.52,0,0,1,4.51-18.87,44,44,0,0,1,12.82-14.65,62.35,62.35,0,0,1,19.72-9.58,88.57,88.57,0,0,1,25.21-3.38,115.59,115.59,0,0,1,20.56,1.83,105,105,0,0,1,18.31,4.93V112.39q0-16.33-9.3-25.49t-26.76-9.16a64.6,64.6,0,0,0-23.24,4.37,117.63,117.63,0,0,0-23.52,12.54l-9.57-19.72q28.44-19.16,59.15-19.16,30.42,0,47.32,15.5t16.9,44.5V169q0,9.87,8.17,10.14v26.48c-3,.56-5.59.94-7.74,1.13s-4.28.28-6.34.28q-9,0-13.94-4.51A19.22,19.22,0,0,1,917.55,191l-.85-9.29a65.52,65.52,0,0,1-24.36,19.85A71.59,71.59,0,0,1,861.21,208.45Zm8.45-22.82a55.78,55.78,0,0,0,21.27-4.08,36.66,36.66,0,0,0,15.63-11.41q5.93-5.07,5.92-10.71V140a93.51,93.51,0,0,0-16.76-4.79,92.24,92.24,0,0,0-17.32-1.69q-16.64,0-27.19,7.18t-10.56,19a24,24,0,0,0,8.17,18.46Q857,185.63,869.66,185.63Z"/></g></g></svg>